<?xml version="1.0" encoding="utf-8"?>
<!-- Generator: Adobe Illustrator 18.1.1, SVG Export Plug-In . SVG Version: 6.00 Build 0)  -->
<!DOCTYPE svg PUBLIC "-//W3C//DTD SVG 1.1//EN" "http://www.w3.org/Graphics/SVG/1.1/DTD/svg11.dtd">
<svg version="1.1" id="Layer_1" xmlns="http://www.w3.org/2000/svg" xmlns:xlink="http://www.w3.org/1999/xlink" x="0px" y="0px"
	 viewBox="0 0 303.4 369.3" enable-background="new 0 0 303.4 369.3" xml:space="preserve">
<g>
	<defs>
		<rect id="SVGID_1_" width="303.4" height="369.3"/>
	</defs>
	<clipPath id="SVGID_2_">
		<use xlink:href="#SVGID_1_"  overflow="visible"/>
	</clipPath>
	<path clip-path="url(#SVGID_2_)" fill="#8B8E8E" d="M161.6,337.6c0.8,0.4,0.5,1,0.6,2.1c0.1,1.8-0.9,3.2-1.1,4.9
		c0,0.4-0.4,1.1-0.7,1.1c-0.9,0.1-1.1,1-1.1,1.4c0,1.1-0.4,1.9-0.6,2.9c-0.2,2.1-0.5,2.6-2,4.2c0.2,1.6,0.4,3.3,0.6,5.2
		c0.7,0.5,1.1,1.5,2.2,1.8c1.1,0.3,2.1,0.7,3.2,0.9c3.7,0.6,7.4,1.4,10.6,3.7c-2,2.1-4.9,3.4-8.1,3.4h-31.2c-3,0-5.8-1.2-7.8-3.1
		c1.9-2,4.4-2.7,6.8-3.6c0.8-0.3,1.6-0.5,2.4-0.5c0.8,0,1.6-0.3,2.4-0.4c1.4-0.1,2.6-0.8,3.6-1.7c0.2-0.2,0.4-0.3,0.4-0.5
		c0.2-1.5,0.4-3.1,0.5-4.6c0-0.4-0.3-0.8-0.6-1.2c-0.6-1.2-1.5-2.3-1.3-3.8c0.1-1.1-0.8-2-0.5-3.2c0.1-0.2-0.5-0.8-0.7-0.8
		c-1,0.1-0.5-1.1-1.2-1.2c-0.1-2.3-1.6-4.4-0.8-6.8c0.5-0.2,1.3-0.4,0.8-1.2c-0.6-0.9-0.5-1.8-0.4-2.7c0.1-1.7-0.8-3.3-0.5-5.1
		c0.2-1.7,0.8-3.1,1.9-4.5c0.7-0.8,1.8-0.4,2.4-1.3c0.4-0.7,1.2-1.3,1.9-1.7c1.2-0.6,2.6-1,3.9-1.5c1.9-0.8,4-0.7,5.8,0.1
		c1.2,0.5,2.5,0.5,3.5,1.4c2.9,0.4,4.1,2.5,5,5c0.7,2.2,0.6,4.7,0,7.7c-0.2,0.9,0.1,1.8-0.5,2.7
		C161.1,336.9,161.1,337.3,161.6,337.6"/>
	<path clip-path="url(#SVGID_2_)" fill="#D0D3D3" d="M286.4,76.6c0.8,1,1.4,2.1,1.6,3.4c-1,0-2-0.4-2.7-1.1l-7.4-7.4
		c-0.7-0.7-1.1-1.7-1.1-2.6c0.9,0,1.7,0.4,2.5,0.8c0.2,0.1,0.5,0.2,0.7,0.5c0.2,0.2,0.5,0.3,0.7,0.5c0.4,0.3,0.8,0.4,1.3,0.5l0.2,0
		c0.4-0.3,0.8-0.6,1.2-1c0.1-0.1,0.1-0.3,0.1-0.4c0.1-0.4,0.2-0.9,0.6-1.2c0.3-0.2,0.3-0.7,0.6-0.9l0-0.4c-0.3-0.2,0.1-0.4,0-0.6
		c0.5-0.6,0.6-1.4,1.4-1.8c0.2,0.1,0.4,0.2,0.5-0.1c0.1-0.3,0.3-0.5,0.5-0.7c0.4-0.4,0.6-1,1.1-1.3c0.5-0.3,0.9-0.6,1.5-0.6
		c0.4,0,0.5,0.3,0.9,0.3c0.3-0.1,0.6,0,0.9,0c0.4,0.2,0.8,0.4,1.3,0.6c0.3,0.1,0.6,0.3,0.8,0.6c0.2,0.2,0.4,0.5,0.5,0.8
		c0.2,0.4,0.5,0.7,0.5,1.2c0.6,0.8,0.4,1.6,0,2.4c-0.3,0.7-1,1.3-1.8,1.9c-0.2,0.2-0.4,0.5-0.8,0.5c-0.1,0-0.2,0.1-0.1,0.3
		c0.1,0.3-0.1,0.4-0.4,0.6c-0.4,0.5-1,0.5-1.4,0.9c-0.1,0.1-0.4,0.2-0.4,0.1c-0.2-0.2-0.5,0-0.6,0.1c-0.2,0.3-0.6,0.4-0.8,0.6
		c-0.6,0.4-0.8,0.5-1.5,0.5c-0.3,0.4-0.7,0.9-1.1,1.4c0,0.3-0.1,0.6,0.1,1C286.1,76,286.2,76.3,286.4,76.6"/>
	<path clip-path="url(#SVGID_2_)" fill="#D0D3D3" d="M242.9,82.6c0.2,0.2,0.5,0.2,0.7,0.4c0.4,0.3,0.8,0.3,1.3,0.3l0.2,0
		c0.4-0.4,0.7-0.7,1.1-1.1c0.1-0.1,0.1-0.3,0.1-0.4c0.1-0.4,0.1-0.9,0.4-1.3c0.3-0.2,0.2-0.7,0.5-0.9l0-0.4
		c-0.3-0.2,0.1-0.4-0.1-0.6c0.4-0.6,0.5-1.5,1.2-2c0.2,0.1,0.4,0.1,0.5-0.1c0-0.3,0.2-0.6,0.4-0.8c0.4-0.4,0.5-1,0.9-1.4
		c0.4-0.4,0.9-0.7,1.4-0.8c0.4-0.1,0.6,0.3,0.9,0.2c0.3-0.1,0.6-0.1,0.8-0.1c0.5,0.1,0.9,0.3,1.4,0.4c0.2,0.1,0.5,0.2,0.7,0.3
		c0.3,0.2,0.6,0.5,0.8,0.9c0.2,0.4,0.6,0.6,0.6,1.1c0.7,0.7,0.6,1.5,0.2,2.4c-0.3,0.7-0.8,1.4-1.6,2c-0.2,0.2-0.4,0.5-0.7,0.6
		c-0.1,0-0.2,0.1-0.1,0.3c0.1,0.3-0.1,0.4-0.3,0.7c-0.3,0.5-0.9,0.6-1.3,1c-0.1,0.1-0.3,0.2-0.4,0.1c-0.3-0.2-0.5,0-0.6,0.1
		c-0.2,0.3-0.5,0.4-0.8,0.7c-0.5,0.5-0.7,0.6-1.4,0.7c-0.3,0.5-0.6,1-0.9,1.5c0.1,0.3,0,0.6,0.2,0.9c0.2,0.3,0.4,0.6,0.7,0.9
		c0.9,0.9,1.7,1.9,2,3.2c-1,0.1-2-0.1-2.8-0.8l-8.2-6.5c-0.8-0.6-1.3-1.5-1.4-2.5c0.9-0.1,1.7,0.2,2.5,0.5
		C242.4,82.4,242.7,82.5,242.9,82.6"/>
	<path clip-path="url(#SVGID_2_)" fill="#9D9DA0" d="M244.5,46.4c-0.9-0.5-1.4-1.4-1.7-2.3c0.9-0.2,1.7,0,2.6,0.2
		c0.3,0.1,0.5,0.1,0.8,0.3c0.2,0.1,0.5,0.2,0.8,0.3c0.4,0.2,0.9,0.2,1.3,0.1l0.2-0.1c0.3-0.4,0.6-0.8,0.9-1.2c0.1-0.1,0-0.3,0.1-0.4
		c0-0.4,0-0.9,0.3-1.3c0.2-0.3,0.1-0.7,0.4-1l-0.1-0.4c-0.3-0.1,0.1-0.4-0.1-0.6c0.4-0.7,0.3-1.5,1-2.1c0.2,0,0.4,0.1,0.4-0.2
		c0-0.4,0.2-0.6,0.4-0.8c0.3-0.5,0.4-1.1,0.8-1.5c0.4-0.4,0.8-0.8,1.4-0.9c0.3-0.1,0.6,0.2,0.9,0.1c0.2-0.1,0.6-0.2,0.8-0.1
		c0.5,0,0.9,0.2,1.4,0.3c0.3,0,0.5,0.1,0.7,0.2c0.4,0.2,0.7,0.5,0.9,0.8s0.6,0.6,0.8,1c0.8,0.7,0.7,1.5,0.5,2.3
		c-0.2,0.8-0.6,1.4-1.4,2.2c-0.2,0.2-0.3,0.5-0.6,0.7c-0.1,0-0.1,0.1-0.1,0.3c0.1,0.3,0,0.4-0.2,0.7c-0.3,0.5-0.8,0.7-1.2,1.2
		c-0.1,0.1-0.3,0.2-0.4,0.2c-0.3-0.1-0.5,0.1-0.6,0.2c-0.2,0.3-0.5,0.5-0.7,0.7c-0.4,0.5-0.6,0.7-1.3,0.8c-0.2,0.5-0.5,1-0.8,1.6
		c0.1,0.3,0.1,0.6,0.3,0.9c0.3,0.3,0.5,0.6,0.8,0.8c1,0.8,1.8,1.7,2.4,3c-1,0.2-2,0.1-2.9-0.5L244.5,46.4z"/>
	<path clip-path="url(#SVGID_2_)" fill="#D0D3D3" d="M208.5,27.3c0.5,0.1,0.9,0,1.3-0.1l0.2-0.1c0.2-0.5,0.5-0.9,0.6-1.4
		c0.1-0.1,0-0.3,0-0.4c-0.1-0.4-0.2-0.9,0-1.3c0.2-0.3,0-0.7,0.2-1l-0.1-0.3c-0.3-0.1,0-0.4-0.2-0.5c0.2-0.7,0-1.6,0.5-2.2
		c0.2,0,0.4,0,0.4-0.3c-0.1-0.4,0.1-0.6,0.2-0.9c0.2-0.5,0.1-1.1,0.4-1.7c0.3-0.5,0.6-0.9,1.1-1.2c0.3-0.2,0.6,0.1,0.9-0.1
		c0.2-0.2,0.5-0.3,0.8-0.3c0.5-0.1,0.9,0,1.4,0c0.4,0,0.7,0,1,0.2c0.3,0.1,0.6,0.3,0.8,0.5c0.3,0.3,0.7,0.4,1,0.8
		c0.9,0.5,1,1.3,1,2.1c0,0.8-0.3,1.5-0.9,2.5c-0.1,0.3-0.2,0.6-0.4,0.8c-0.1,0.1-0.1,0.2,0,0.3c0.2,0.2,0.1,0.4,0,0.7
		c-0.2,0.6-0.6,0.9-0.9,1.4c-0.1,0.1-0.2,0.3-0.3,0.3c-0.3-0.1-0.5,0.2-0.5,0.3c-0.1,0.3-0.4,0.6-0.5,0.9c-0.3,0.6-0.4,0.8-1.1,1.1
		c-0.1,0.5-0.2,1.1-0.4,1.7c0.2,0.2,0.2,0.6,0.5,0.8c0.3,0.2,0.6,0.4,0.9,0.6c1.1,0.6,2.2,1.3,3,2.4c-0.9,0.4-1.9,0.5-2.9,0.2
		l-9.9-3.5c-1-0.3-1.7-1-2.1-1.9c0.8-0.4,1.7-0.4,2.6-0.4c0.3,0,0.6,0,0.8,0.1C207.9,27.3,208.2,27.3,208.5,27.3"/>
	<path clip-path="url(#SVGID_2_)" fill="#9D9DA0" d="M213.7,65.3c0.4,0.2,0.9,0.1,1.3,0l0.2-0.1c0.3-0.4,0.6-0.9,0.8-1.3
		c0.1-0.1,0-0.3,0-0.4c0-0.5-0.1-0.9,0.2-1.3c0.2-0.3,0.1-0.7,0.3-1l-0.1-0.4c-0.3-0.1,0-0.4-0.2-0.5c0.3-0.7,0.1-1.6,0.7-2.2
		c0.2,0,0.4,0,0.4-0.2c0-0.4,0.1-0.6,0.3-0.9c0.3-0.5,0.2-1.1,0.6-1.6c0.3-0.5,0.7-0.8,1.2-1.1c0.3-0.1,0.6,0.1,0.9,0
		c0.2-0.1,0.5-0.2,0.8-0.2c0.5,0,0.9,0.1,1.4,0.1c0.3,0,0.5,0.1,0.7,0.2c0.4,0.2,0.7,0.4,1,0.7c0.3,0.3,0.7,0.5,0.9,0.9
		c0.8,0.6,0.9,1.4,0.8,2.2c-0.1,0.8-0.5,1.5-1.1,2.3c-0.2,0.2-0.2,0.6-0.5,0.7c-0.1,0-0.1,0.2,0,0.3c0.2,0.2,0,0.4-0.1,0.7
		c-0.2,0.5-0.8,0.8-1,1.3c-0.1,0.1-0.3,0.3-0.4,0.2c-0.3-0.1-0.5,0.1-0.6,0.3c-0.1,0.3-0.4,0.5-0.6,0.8c-0.4,0.6-0.5,0.7-1.2,1
		c-0.2,0.5-0.4,1.1-0.6,1.7c0.1,0.2,0.1,0.6,0.4,0.9c0.3,0.2,0.5,0.5,0.9,0.7c1.1,0.7,2,1.5,2.7,2.7c-0.9,0.3-2,0.3-2.9-0.1
		l-9.5-4.6c-0.9-0.4-1.6-1.2-1.9-2.1c0.9-0.3,1.7-0.2,2.6-0.1c0.3,0,0.5,0.1,0.8,0.2C213.1,65.2,213.4,65.2,213.7,65.3"/>
	<path clip-path="url(#SVGID_2_)" fill="#D0D3D3" d="M188.9,59.2l-10.2-2.3c-1-0.2-1.8-0.8-2.3-1.6l0,0c0.8-0.5,1.6-0.6,2.5-0.6
		c0.3,0,0.5-0.1,0.8,0c0.3,0.1,0.6,0,0.8,0.1c0.5,0.1,0.9-0.1,1.3-0.3l0.2-0.1c0.2-0.5,0.4-1,0.5-1.5c0-0.1-0.1-0.3-0.1-0.4
		c-0.1-0.4-0.3-0.9-0.2-1.3c0.1-0.4-0.1-0.7,0.1-1.1l-0.2-0.3c-0.3,0-0.1-0.4-0.3-0.5c0.1-0.8-0.2-1.5,0.2-2.3
		c0.2,0,0.4-0.1,0.4-0.3c-0.1-0.3,0-0.6,0.1-0.9c0.1-0.6,0-1.1,0.2-1.7c0.2-0.5,0.5-1,1-1.3c0.3-0.2,0.6,0,0.9-0.2
		c0.2-0.2,0.5-0.4,0.8-0.4c0.4-0.1,0.9-0.1,1.4-0.2c0.3,0,0.5,0,0.8,0c0.4,0.1,0.8,0.2,1.1,0.5c0.3,0.2,0.8,0.4,1,0.7
		c0.9,0.4,1.2,1.1,1.3,2c0.1,0.8-0.1,1.6-0.6,2.5c-0.1,0.3-0.1,0.6-0.4,0.8c-0.1,0.1-0.1,0.2,0.1,0.3c0.2,0.2,0.1,0.4,0.1,0.7
		c-0.1,0.6-0.6,1-0.7,1.5c0,0.1-0.2,0.3-0.3,0.3c-0.3,0-0.5,0.2-0.5,0.4c-0.1,0.3-0.3,0.6-0.4,0.9c-0.2,0.7-0.4,0.8-1,1.2
		c-0.1,0.5-0.1,1.1-0.2,1.8c0.2,0.2,0.3,0.6,0.6,0.8c0.3,0.2,0.6,0.4,1,0.5c1.2,0.5,2.3,1,3.2,2C191,59.2,190,59.4,188.9,59.2"/>
	<path clip-path="url(#SVGID_2_)" fill="#D0D3D3" d="M167,18.8c0.5,0,0.9-0.2,1.3-0.4l0.2-0.2c0.1-0.5,0.2-1,0.3-1.5
		c0-0.1-0.1-0.3-0.1-0.4c-0.2-0.4-0.4-0.8-0.3-1.3c0.1-0.3-0.2-0.7-0.1-1.1l-0.2-0.3c-0.3,0-0.1-0.4-0.3-0.4c0.1-0.8-0.4-1.5,0-2.3
		c0.2,0,0.4-0.1,0.3-0.4c-0.1-0.3-0.1-0.6,0-0.9c0.1-0.6-0.1-1.1,0-1.7c0.2-0.5,0.4-1,0.8-1.4c0.3-0.2,0.6-0.1,0.8-0.3
		c0.2-0.2,0.4-0.4,0.7-0.5c0.4-0.2,0.9-0.2,1.4-0.4c0.3-0.1,0.7-0.1,1-0.1c0.3,0,0.6,0.1,0.9,0.3c0.4,0.2,0.8,0.3,1.1,0.6
		c0.9,0.2,1.3,1,1.5,1.9c0.2,0.8,0,1.6-0.3,2.6c-0.1,0.3-0.1,0.6-0.3,0.9c-0.1,0.1-0.1,0.2,0.1,0.3c0.2,0.2,0.1,0.4,0.1,0.7
		c0,0.6-0.4,1-0.5,1.6c0,0.1-0.2,0.3-0.3,0.3c-0.3,0-0.4,0.3-0.4,0.4c0,0.4-0.2,0.6-0.3,1c-0.1,0.7-0.3,0.9-0.8,1.3
		c0,0.5,0,1.1,0,1.8c0.2,0.2,0.3,0.5,0.7,0.7c0.4,0.1,0.7,0.3,1.1,0.4c1.2,0.3,2.4,0.8,3.4,1.6c-0.8,0.6-1.8,0.9-2.8,0.8l-10.4-1.2
		c-1-0.1-1.9-0.6-2.5-1.3c0.7-0.6,1.6-0.7,2.4-0.9c0.3-0.1,0.5-0.1,0.8-0.1C166.5,18.9,166.7,18.8,167,18.8"/>
	<path clip-path="url(#SVGID_2_)" fill="#D0D3D3" d="M123.7,22.4c-1,0.1-2-0.2-2.7-0.7c0.6-0.7,1.4-1.1,2.2-1.4
		c0.3-0.1,0.5-0.2,0.8-0.3c0.3,0,0.5-0.2,0.8-0.2c0.5-0.1,0.8-0.4,1.1-0.7l0.1-0.2c0-0.5,0-1,0-1.5c0-0.1-0.2-0.2-0.2-0.4
		c-0.3-0.4-0.6-0.7-0.6-1.2c0-0.4-0.3-0.6-0.3-1l-0.3-0.2c-0.3,0.1-0.2-0.3-0.4-0.4c-0.1-0.8-0.7-1.4-0.5-2.2
		c0.2-0.1,0.4-0.2,0.2-0.4c-0.2-0.3-0.2-0.6-0.2-0.9c0-0.6-0.4-1.1-0.4-1.7c0-0.6,0.2-1.1,0.5-1.6c0.2-0.3,0.6-0.2,0.8-0.5
		c0.1-0.2,0.3-0.5,0.6-0.6c0.4-0.3,0.8-0.4,1.3-0.6c0.3-0.1,0.6-0.2,0.9-0.3c0.4,0,0.7,0,1.1,0.1c0.4,0.1,0.8,0.1,1.2,0.3
		c1,0,1.5,0.7,1.8,1.5c0.3,0.7,0.4,1.5,0.3,2.6c0,0.3,0.1,0.6-0.1,0.9c0,0.1,0,0.2,0.2,0.3c0.3,0.1,0.2,0.3,0.3,0.7
		c0.1,0.6-0.2,1.1-0.2,1.7c0,0.1-0.1,0.4-0.2,0.4c-0.3,0.1-0.3,0.4-0.3,0.5c0,0.4-0.1,0.7-0.1,1c0,0.7-0.1,0.9-0.5,1.5
		c0.1,0.5,0.3,1.1,0.4,1.7c0.2,0.2,0.4,0.5,0.8,0.5c0.4,0.1,0.7,0.2,1.1,0.2c1.3,0.1,2.5,0.2,3.7,0.9c-0.6,0.8-1.5,1.3-2.6,1.4
		L123.7,22.4z"/>
	<path clip-path="url(#SVGID_2_)" fill="#D0D3D3" d="M144.2,51.9c0.3-0.1,0.5-0.2,0.8-0.2c0.3,0,0.6-0.1,0.8-0.1
		c0.5,0,0.9-0.3,1.2-0.6l0.1-0.2c0.1-0.5,0.1-1,0.2-1.5c0-0.1-0.1-0.3-0.2-0.4c-0.2-0.4-0.5-0.8-0.4-1.3c0-0.4-0.3-0.7-0.2-1.1
		l-0.2-0.3c-0.3,0-0.2-0.4-0.4-0.4c0-0.8-0.5-1.5-0.3-2.3c0.2,0,0.4-0.1,0.3-0.4c-0.2-0.3-0.2-0.6-0.2-0.9c0-0.6-0.3-1.1-0.2-1.7
		c0.1-0.6,0.3-1.1,0.7-1.5c0.2-0.3,0.6-0.1,0.8-0.4c0.1-0.2,0.4-0.4,0.6-0.6c0.4-0.2,0.9-0.3,1.3-0.5c0.3-0.1,0.6-0.2,0.9-0.2
		c0.3,0,0.7,0.1,1,0.2c0.4,0.2,0.8,0.2,1.2,0.5c1,0.2,1.4,0.9,1.7,1.7c0.2,0.7,0.2,1.6,0,2.6c-0.1,0.3,0,0.6-0.2,0.9
		c0,0.1,0,0.2,0.1,0.3c0.3,0.1,0.2,0.3,0.2,0.7c0,0.6-0.3,1.1-0.4,1.6c0,0.1-0.1,0.4-0.2,0.4c-0.3,0-0.4,0.3-0.4,0.5
		c0,0.4-0.1,0.6-0.2,1c-0.1,0.7-0.2,0.9-0.7,1.4c0.1,0.5,0.1,1.1,0.2,1.8c0.2,0.2,0.4,0.5,0.8,0.6s0.7,0.2,1.1,0.3
		c1.3,0.2,2.5,0.5,3.6,1.3c-0.7,0.7-1.7,1.1-2.7,1.1h-10.5c-1,0-1.9-0.4-2.6-1C142.6,52.4,143.4,52.2,144.2,51.9"/>
	<path clip-path="url(#SVGID_2_)" fill="#D0D3D3" d="M110.6,59.2c-1,0.2-2,0.1-2.8-0.4c0.5-0.8,1.2-1.2,2-1.7
		c0.2-0.1,0.5-0.3,0.8-0.4c0.3-0.1,0.5-0.2,0.8-0.3c0.5-0.1,0.8-0.5,1.1-0.8l0.1-0.2c-0.1-0.5-0.1-1-0.2-1.5c0-0.1-0.2-0.2-0.3-0.4
		c-0.3-0.3-0.7-0.6-0.7-1.1c0-0.4-0.4-0.6-0.4-1l-0.3-0.2c-0.3,0.1-0.2-0.3-0.5-0.3c-0.2-0.7-0.9-1.3-0.8-2.2
		c0.2-0.1,0.4-0.2,0.2-0.4c-0.2-0.2-0.3-0.6-0.3-0.9c-0.1-0.6-0.5-1-0.5-1.6c0-0.6,0-1.1,0.3-1.6c0.2-0.3,0.6-0.3,0.7-0.6
		c0.1-0.3,0.3-0.5,0.5-0.7c0.4-0.3,0.8-0.5,1.2-0.8c0.2-0.1,0.4-0.3,0.7-0.3c0.4-0.1,0.8-0.1,1.2-0.1c0.4,0.1,0.8,0,1.2,0.2
		c1-0.1,1.5,0.5,2,1.3c0.4,0.7,0.6,1.5,0.6,2.5c0,0.3,0.2,0.6,0.1,0.9c0,0.1,0,0.2,0.2,0.3c0.3,0.1,0.2,0.3,0.3,0.6
		c0.2,0.6-0.1,1.1,0,1.7c0,0.1-0.1,0.4-0.1,0.4c-0.3,0.1-0.3,0.4-0.3,0.5c0.1,0.3,0,0.7,0,1c0.1,0.7,0,0.9-0.3,1.5
		c0.2,0.5,0.4,1.1,0.6,1.7c0.3,0.1,0.5,0.4,0.9,0.4c0.4,0,0.8,0.1,1.1,0c1.3-0.1,2.5-0.1,3.8,0.4c-0.5,0.8-1.4,1.5-2.4,1.7
		L110.6,59.2z"/>
	<path clip-path="url(#SVGID_2_)" fill="#D0D3D3" d="M83.8,15.1c0.4,0,0.8-0.1,1.3,0.1c1-0.2,1.6,0.4,2.1,1c0.5,0.6,0.7,1.4,0.9,2.4
		c0,0.3,0.2,0.6,0.1,0.9c0,0.1,0,0.2,0.2,0.2c0.3,0.1,0.3,0.3,0.4,0.6c0.2,0.5,0,1.1,0.2,1.7c0,0.1,0,0.4-0.1,0.4
		c-0.3,0.1-0.2,0.5-0.2,0.6c0.1,0.3,0.1,0.7,0.2,1c0.2,0.7,0.1,0.9-0.2,1.6c0.2,0.5,0.5,1,0.8,1.6c0.3,0.1,0.5,0.3,0.9,0.3
		c0.4,0,0.8,0,1.1-0.1c1.2-0.2,2.5-0.4,3.8,0c-0.4,0.9-1.2,1.6-2.2,2l-9.9,3.5c-1,0.3-2,0.3-2.8-0.1c0.4-0.8,1.1-1.4,1.8-1.9
		c0.2-0.2,0.4-0.3,0.7-0.4c0.3-0.1,0.5-0.3,0.7-0.4c0.4-0.2,0.7-0.5,1-1l0.1-0.2c-0.1-0.5-0.2-1-0.4-1.5c0-0.1-0.2-0.2-0.3-0.3
		c-0.3-0.3-0.7-0.5-0.8-1c-0.1-0.4-0.5-0.5-0.5-0.9l-0.3-0.2C82,25,82,24.5,81.8,24.5c-0.3-0.7-1-1.2-1-2.1c0.1-0.1,0.4-0.3,0.1-0.5
		c-0.3-0.2-0.3-0.5-0.4-0.8c-0.2-0.5-0.6-1-0.7-1.5c-0.1-0.6-0.1-1.1,0.1-1.6c0.1-0.3,0.5-0.3,0.6-0.7c0.1-0.3,0.2-0.6,0.4-0.8
		c0.3-0.3,0.7-0.6,1.1-0.9c0.2-0.2,0.5-0.4,0.8-0.5C83.1,15.1,83.5,15,83.8,15.1"/>
	<path clip-path="url(#SVGID_2_)" fill="#D0D3D3" d="M55,46.4L46.1,52c-0.9,0.5-1.9,0.7-2.8,0.5c0.2-0.9,0.8-1.6,1.3-2.2
		c0.2-0.2,0.3-0.4,0.6-0.6c0.2-0.1,0.4-0.4,0.6-0.6c0.4-0.3,0.6-0.7,0.7-1.1l0-0.2c-0.2-0.5-0.4-0.9-0.7-1.4
		c-0.1-0.1-0.2-0.2-0.4-0.2c-0.4-0.2-0.8-0.4-1.1-0.8c-0.2-0.3-0.6-0.4-0.7-0.8l-0.3-0.1c-0.3,0.2-0.3-0.2-0.5-0.1
		c-0.4-0.6-1.2-1-1.5-1.8c0.1-0.1,0.3-0.4,0-0.5c-0.3-0.2-0.5-0.4-0.6-0.7c-0.3-0.5-0.8-0.8-1-1.3c-0.2-0.5-0.3-1-0.2-1.6
		c0-0.3,0.4-0.4,0.4-0.8c0-0.3,0.1-0.6,0.2-0.8c0.2-0.4,0.6-0.8,0.8-1.1c0.2-0.3,0.5-0.5,0.7-0.7c0.3-0.2,0.6-0.3,0.9-0.3
		c0.4-0.1,0.8-0.3,1.2-0.2c0.9-0.4,1.6,0,2.3,0.5c0.6,0.5,1,1.2,1.4,2.2c0.1,0.3,0.3,0.5,0.3,0.9c0,0.1,0.1,0.2,0.3,0.2
		c0.3,0,0.3,0.2,0.5,0.5c0.3,0.5,0.3,1.1,0.6,1.6c0.1,0.1,0.1,0.4,0,0.4c-0.3,0.2-0.1,0.5-0.1,0.6c0.2,0.3,0.2,0.6,0.4,0.9
		c0.3,0.6,0.3,0.8,0.2,1.6c0.3,0.4,0.7,0.9,1.1,1.4c0.3,0,0.6,0.2,0.9,0.1c0.4-0.1,0.7-0.2,1.1-0.3c1.2-0.5,2.3-0.9,3.7-0.8
		C56.5,44.9,55.9,45.8,55,46.4"/>
	<path clip-path="url(#SVGID_2_)" fill="#9D9DA0" d="M88.2,67l-9.5,4.6c-0.9,0.4-1.9,0.5-2.8,0.2c0.3-0.9,0.9-1.5,1.5-2.1
		c0.2-0.2,0.4-0.4,0.7-0.5c0.2-0.1,0.4-0.4,0.7-0.5c0.4-0.2,0.7-0.6,0.8-1l0-0.2c-0.2-0.5-0.3-1-0.5-1.5c-0.1-0.1-0.2-0.2-0.3-0.3
		c-0.4-0.3-0.8-0.5-0.9-0.9c-0.1-0.3-0.5-0.5-0.6-0.9l-0.3-0.1c-0.3,0.2-0.3-0.2-0.5-0.2c-0.4-0.7-1.1-1.1-1.2-1.9
		c0.1-0.1,0.3-0.3,0.1-0.5c-0.3-0.2-0.4-0.5-0.5-0.8c-0.2-0.5-0.7-0.9-0.9-1.5c-0.2-0.5-0.2-1.1-0.1-1.6c0.1-0.3,0.5-0.4,0.5-0.7
		c0-0.3,0.2-0.6,0.3-0.8c0.3-0.4,0.6-0.7,1-1c0.2-0.2,0.4-0.4,0.6-0.5c0.4-0.2,0.8-0.3,1.2-0.3c0.4,0,0.8-0.2,1.3-0.1
		c0.9-0.3,1.6,0.2,2.2,0.8c0.5,0.6,0.9,1.3,1.1,2.3c0.1,0.3,0.3,0.5,0.2,0.9c0,0.1,0.1,0.2,0.2,0.2c0.3,0,0.3,0.2,0.5,0.5
		c0.3,0.5,0.2,1.1,0.4,1.6c0,0.1,0,0.4,0,0.4c-0.3,0.2-0.2,0.5-0.1,0.6c0.2,0.3,0.2,0.6,0.3,1c0.2,0.7,0.2,0.9,0,1.6
		c0.3,0.5,0.6,1,0.9,1.5c0.3,0.1,0.6,0.3,0.9,0.2c0.4-0.1,0.7-0.1,1.1-0.2c1.2-0.4,2.4-0.6,3.8-0.4C89.8,65.7,89.1,66.6,88.2,67"/>
	<path clip-path="url(#SVGID_2_)" fill="#D0D3D3" d="M47.6,91.6c0.1-0.9,0.6-1.6,1-2.4c0.1-0.2,0.3-0.5,0.5-0.6
		c0.2-0.2,0.3-0.4,0.5-0.6c0.4-0.3,0.5-0.8,0.6-1.2v-0.2c-0.3-0.4-0.5-0.9-0.8-1.3c-0.1-0.1-0.3-0.1-0.4-0.2
		c-0.4-0.2-0.9-0.3-1.1-0.7c-0.2-0.3-0.6-0.4-0.8-0.7l-0.3-0.1c-0.2,0.2-0.4-0.2-0.6-0.1c-0.5-0.6-1.3-0.8-1.6-1.6
		c0.1-0.1,0.2-0.4,0-0.5c-0.3-0.1-0.5-0.4-0.7-0.6c-0.3-0.5-0.9-0.7-1.2-1.2c-0.3-0.5-0.5-1-0.4-1.6c0-0.4,0.4-0.5,0.4-0.8
		c0-0.3,0-0.6,0.1-0.8c0.2-0.4,0.5-0.8,0.7-1.2c0.1-0.2,0.3-0.4,0.5-0.6c0.3-0.3,0.7-0.5,1.1-0.6c0.4-0.1,0.8-0.4,1.2-0.4
		c0.9-0.5,1.6-0.2,2.4,0.3c0.6,0.4,1.1,1.1,1.6,2c0.1,0.3,0.4,0.5,0.4,0.8c0,0.1,0.1,0.2,0.3,0.1c0.3,0,0.3,0.1,0.6,0.4
		c0.4,0.4,0.4,1,0.7,1.5c0.1,0.1,0.1,0.4,0,0.4c-0.2,0.2-0.1,0.5,0,0.6c0.2,0.3,0.3,0.6,0.5,0.9c0.4,0.6,0.4,0.8,0.4,1.5
		c0.4,0.4,0.8,0.8,1.3,1.2c0.3,0,0.6,0.1,1,0c0.3-0.1,0.7-0.3,1-0.5c1.1-0.6,2.2-1.2,3.6-1.2c-0.1,1-0.6,1.9-1.4,2.6l-8.2,6.6
		C49.5,91.4,48.6,91.7,47.6,91.6L47.6,91.6z"/>
	<path clip-path="url(#SVGID_2_)" fill="#9D9DA0" d="M10.6,62.2c0.7,0.3,1.3,1,1.8,1.8c0.2,0.2,0.4,0.4,0.5,0.8
		c0,0.1,0.1,0.2,0.3,0.1c0.3-0.1,0.4,0.1,0.6,0.4c0.4,0.4,0.5,1,0.9,1.4c0.1,0.1,0.2,0.4,0.1,0.4c-0.2,0.2,0,0.5,0.1,0.6
		c0.3,0.2,0.4,0.6,0.6,0.8c0.4,0.5,0.5,0.7,0.5,1.5c0.4,0.3,0.9,0.7,1.4,1.1c0.3,0,0.6,0.1,1-0.1c0.3-0.2,0.7-0.3,1-0.6
		c1-0.8,2.1-1.4,3.4-1.6h0c0,1-0.4,2-1.1,2.7l-7.4,7.4c-0.7,0.7-1.7,1.1-2.6,1.1c0-0.9,0.4-1.7,0.8-2.5c0.1-0.3,0.2-0.5,0.4-0.7
		c0.2-0.2,0.3-0.5,0.5-0.7c0.3-0.4,0.4-0.8,0.4-1.3l0-0.2c-0.3-0.4-0.6-0.8-1-1.2c-0.1-0.1-0.3-0.1-0.4-0.1
		c-0.4-0.1-0.9-0.2-1.2-0.6c-0.2-0.3-0.7-0.3-0.9-0.6l-0.4,0c-0.2,0.3-0.4-0.1-0.6,0c-0.6-0.5-1.4-0.7-1.8-1.4
		c0.1-0.1,0.2-0.4-0.1-0.5c-0.3-0.1-0.5-0.3-0.7-0.5c-0.4-0.4-1-0.6-1.3-1.1c-0.3-0.5-0.6-0.9-0.6-1.5c0-0.4,0.3-0.5,0.3-0.9
		c-0.1-0.3,0-0.6,0-0.8c0.2-0.5,0.4-0.9,0.6-1.3c0.1-0.3,0.3-0.6,0.6-0.8c0.2-0.2,0.5-0.4,0.8-0.5c0.4-0.2,0.7-0.5,1.2-0.5
		C9,61.6,9.8,61.8,10.6,62.2"/>
</g>
<g>
	<defs>
		<path id="SVGID_3_" d="M134.2,180.1c-6.3,0-11.4,5.1-11.4,11.4v31.2c0,6.3,5.1,11.4,11.4,11.4h31.2c6.3,0,11.4-5.1,11.4-11.4
			v-31.2c0-6.3-5.1-11.4-11.4-11.4H134.2z"/>
	</defs>
	<clipPath id="SVGID_4_">
		<use xlink:href="#SVGID_3_"  overflow="visible"/>
	</clipPath>
	<path clip-path="url(#SVGID_4_)" fill="#DFDDD0" d="M166.5,180.1H137h-2.5h-1.5c-0.3,0-0.7,0-1,0c-0.9,0.1-1.7,0.3-2.5,0.6
		c-0.9,0.3-1.8,0.8-2.5,1.4c-2.5,1.8-4.1,4.8-4.1,8.1v7.9v0.8v24.8c0,5.6,4.5,10.1,10.1,10.1h22.6h11c5.6,0,10.1-4.5,10.1-10.1v-11
		V199v-0.8v-7.9C176.6,184.7,172.1,180.1,166.5,180.1"/>
	<path clip-path="url(#SVGID_4_)" fill="#213D59" d="M149.7,208.7c0.5,0,0.9,0.4,0.9,0.9c0,0.5-0.4,0.9-0.9,0.9
		c-0.5,0-0.9-0.4-0.9-0.9C148.9,209.1,149.3,208.7,149.7,208.7"/>
	<path clip-path="url(#SVGID_4_)" fill="#213D59" d="M149.7,202.8c1.4,0,2.5,1.1,2.5,2.5c0,1.4-1.1,2.5-2.5,2.5
		c-1.4,0-2.5-1.1-2.5-2.5C147.2,203.9,148.3,202.8,149.7,202.8"/>
	<path clip-path="url(#SVGID_4_)" fill="#213D59" d="M154.8,207c0-2.8-2.3-5.1-5.1-5.1c-2.8,0-5.1,2.3-5.1,5.1
		c0,2.8,2.3,5.1,5.1,5.1C152.5,212.1,154.8,209.8,154.8,207 M149.7,198.1c4.9,0,8.9,4,8.9,8.9c0,4.9-4,8.9-8.9,8.9
		c-4.9,0-8.9-4-8.9-8.9C140.8,202.1,144.8,198.1,149.7,198.1"/>
	<path clip-path="url(#SVGID_4_)" fill="#1A2129" d="M150.6,209.6c0-0.5-0.4-0.9-0.9-0.9c-0.5,0-0.9,0.4-0.9,0.9
		c0,0.5,0.4,0.9,0.9,0.9C150.2,210.4,150.6,210,150.6,209.6 M152.3,205.3c0-1.4-1.1-2.5-2.5-2.5c-1.4,0-2.5,1.1-2.5,2.5
		s1.1,2.5,2.5,2.5C151.1,207.9,152.3,206.7,152.3,205.3 M149.7,201.9c2.8,0,5.1,2.3,5.1,5.1c0,2.8-2.3,5.1-5.1,5.1
		c-2.8,0-5.1-2.3-5.1-5.1C144.6,204.2,146.9,201.9,149.7,201.9"/>
	<path clip-path="url(#SVGID_4_)" fill="#1A2129" d="M158.7,207c0-4.9-4-8.9-8.9-8.9c-4.9,0-8.9,4-8.9,8.9c0,4.9,4,8.9,8.9,8.9
		C154.7,216,158.7,212,158.7,207 M149.7,195.6c6.3,0,11.5,5.1,11.5,11.5c0,6.3-5.1,11.5-11.5,11.5c-6.3,0-11.5-5.1-11.5-11.5
		C138.3,200.7,143.4,195.6,149.7,195.6"/>
	<path clip-path="url(#SVGID_4_)" fill="#573B33" d="M162,198.2h-0.2c0.2,0.3,0.4,0.6,0.6,0.8h0.5h13.8v-0.8H162z"/>
	<path clip-path="url(#SVGID_4_)" fill="#573B33" d="M137,198.2h0.7c-0.2,0.3-0.4,0.6-0.6,0.8h-14.3v-0.8h4.1h2.5h2.5h2.5H137z"/>
	<path clip-path="url(#SVGID_4_)" fill="#8E6152" d="M166.5,180.1H137h-2.5h-1.5c-0.3,0-0.7,0-1,0c-0.9,0.1-1.7,0.3-2.5,0.6
		c-0.9,0.3-1.8,0.8-2.5,1.4c-2.5,1.8-4.1,4.8-4.1,8.1v7.9h4.1h2.5h2.5h2.5h2.5h0.7c2.7-3.7,7.1-6,12-6c4.1,0,7.8,1.7,10.5,4.4
		c0.5,0.5,1,1.1,1.4,1.7h0.2h14.7v-7.9C176.6,184.7,172.1,180.1,166.5,180.1"/>
	<rect x="134.5" y="180.1" clip-path="url(#SVGID_4_)" fill="#36B4F4" width="2.5" height="18"/>
	<path clip-path="url(#SVGID_4_)" fill="#63DD7D" d="M134.5,180.1v18h-2.5v-18c0.3,0,0.6,0,1,0H134.5z"/>
	<path clip-path="url(#SVGID_4_)" fill="#FBD800" d="M131.9,180.2v18h-2.5v-17.4v0C130.2,180.5,131.1,180.3,131.9,180.2"/>
	<path clip-path="url(#SVGID_4_)" fill="#F13D33" d="M129.4,180.8v17.4h-2.5v-16C127.7,181.6,128.5,181.1,129.4,180.8L129.4,180.8z"
		/>
	<path clip-path="url(#SVGID_4_)" fill="#1A2129" d="M166.5,183.6c3.3,0,6,2.7,6,6c0,3.3-2.7,6-6,6c-3.3,0-6-2.7-6-6
		C160.5,186.3,163.2,183.6,166.5,183.6"/>
	<path clip-path="url(#SVGID_4_)" fill="#1A2129" d="M149.7,195.6c6.3,0,11.5,5.1,11.5,11.5c0,6.3-5.1,11.5-11.5,11.5
		c-6.3,0-11.5-5.1-11.5-11.5C138.3,200.7,143.4,195.6,149.7,195.6"/>
	<path clip-path="url(#SVGID_4_)" fill="#213D59" d="M166.5,188.7c0.5,0,0.9,0.4,0.9,0.9c0,0.5-0.4,0.9-0.9,0.9
		c-0.5,0-0.9-0.4-0.9-0.9C165.7,189.1,166.1,188.7,166.5,188.7"/>
	<path clip-path="url(#SVGID_4_)" fill="#213D59" d="M168.2,189.6c0-0.9-0.8-1.7-1.7-1.7c-0.9,0-1.7,0.8-1.7,1.7
		c0,0.9,0.8,1.7,1.7,1.7C167.5,191.3,168.2,190.5,168.2,189.6 M166.5,187c1.4,0,2.5,1.1,2.5,2.5c0,1.4-1.1,2.5-2.5,2.5
		c-1.4,0-2.5-1.1-2.5-2.5C164,188.2,165.1,187,166.5,187"/>
	<path clip-path="url(#SVGID_4_)" fill="#213D59" d="M149.7,208.7c0.5,0,0.9,0.4,0.9,0.9c0,0.5-0.4,0.9-0.9,0.9
		c-0.5,0-0.9-0.4-0.9-0.9C148.9,209.1,149.3,208.7,149.7,208.7"/>
	<path clip-path="url(#SVGID_4_)" fill="#213D59" d="M149.7,202.8c1.4,0,2.5,1.1,2.5,2.5c0,1.4-1.1,2.5-2.5,2.5
		c-1.4,0-2.5-1.1-2.5-2.5C147.2,203.9,148.3,202.8,149.7,202.8"/>
	<path clip-path="url(#SVGID_4_)" fill="#213D59" d="M154.8,207c0-2.8-2.3-5.1-5.1-5.1c-2.8,0-5.1,2.3-5.1,5.1
		c0,2.8,2.3,5.1,5.1,5.1C152.5,212.1,154.8,209.8,154.8,207 M149.7,198.1c4.9,0,8.9,4,8.9,8.9c0,4.9-4,8.9-8.9,8.9
		c-4.9,0-8.9-4-8.9-8.9C140.8,202.1,144.8,198.1,149.7,198.1"/>
	<path clip-path="url(#SVGID_4_)" fill="#98958E" d="M162.8,199L162.8,199h-0.5c1.5,2.3,2.3,5.1,2.3,8c0,8.2-6.7,14.9-14.9,14.9
		c-4.1,0-7.8-1.7-10.5-4.4l16.3,16.3h11c0.3,0,0.7,0,1-0.1c4.5-0.9,8-4.3,9-8.8c0.1-0.4,0.1-0.8,0.1-1.3v-11L162.8,199z"/>
	<path clip-path="url(#SVGID_4_)" fill="#3B2621" d="M162,198.2L162,198.2h-0.2c0.2,0.3,0.4,0.6,0.6,0.8h0.5L162,198.2z"/>
	<path clip-path="url(#SVGID_4_)" fill="#614038" d="M160.3,196.5c0.5,0.5,1,1.1,1.4,1.7h0.2L160.3,196.5z"/>
</g>
<g>
	<defs>
		<rect id="SVGID_5_" width="303.4" height="369.3"/>
	</defs>
	<clipPath id="SVGID_6_">
		<use xlink:href="#SVGID_5_"  overflow="visible"/>
	</clipPath>
	<path clip-path="url(#SVGID_6_)" fill="#939398" d="M78.6,30.4l-3.5-9.9c0-0.1-0.2-0.2-0.3-0.2c-0.1,0-0.2,0.2-0.2,0.3l3.5,9.9
		c0,0.1,0.2,0.2,0.3,0.2C78.6,30.6,78.6,30.5,78.6,30.4"/>
	<path clip-path="url(#SVGID_6_)" fill="#939398" d="M224.5,20.4l-3.5,9.9c0,0.1,0,0.3,0.2,0.3c0.1,0,0.3,0,0.3-0.2l3.5-9.9
		c0-0.1,0-0.3-0.2-0.3C224.6,20.2,224.5,20.3,224.5,20.4"/>
	<path clip-path="url(#SVGID_6_)" fill="#939398" d="M216.4,32.6l-9.9-3.5c-0.1,0-0.3,0-0.3,0.2c0,0.1,0,0.3,0.2,0.3l9.9,3.5
		c0.1,0,0.3,0,0.3-0.2C216.6,32.8,216.5,32.6,216.4,32.6"/>
	<path clip-path="url(#SVGID_6_)" fill="#939398" d="M204.3,24.5l3.5-9.9c0-0.1,0-0.3-0.2-0.3c-0.1,0-0.3,0-0.3,0.2l-3.5,9.9
		c0,0.1,0,0.3,0.2,0.3C204.1,24.7,204.3,24.7,204.3,24.5"/>
	<path clip-path="url(#SVGID_6_)" fill="#939398" d="M58.7,84.4c1-0.8,1.5-2,1.5-3.2c0-0.9-0.3-1.8-0.9-2.5c-0.1-0.1-0.2-0.1-0.4,0
		s-0.1,0.2,0,0.4c0.5,0.7,0.8,1.4,0.8,2.2c0,1.1-0.5,2.1-1.3,2.8c-0.1,0.1-0.1,0.2,0,0.4S58.6,84.5,58.7,84.4"/>
	<path clip-path="url(#SVGID_6_)" fill="#939398" d="M39.2,76.8l8.2-6.6c0.1-0.1,0.1-0.2,0-0.4c-0.1-0.1-0.2-0.1-0.4,0l-8.2,6.6
		c-0.1,0.1-0.1,0.2,0,0.4S39.1,76.9,39.2,76.8"/>
	<path clip-path="url(#SVGID_6_)" fill="#939398" d="M52.4,70.8L59,79c0.1,0.1,0.2,0.1,0.4,0s0.1-0.2,0-0.4l-6.6-8.2
		c-0.1-0.1-0.2-0.1-0.4,0C52.3,70.5,52.3,70.7,52.4,70.8"/>
	<path clip-path="url(#SVGID_6_)" fill="#939398" d="M58.4,84l-8.2,6.6c-0.1,0.1-0.1,0.2,0,0.4c0.1,0.1,0.2,0.1,0.4,0l8.2-6.6
		c0.1-0.1,0.1-0.2,0-0.4C58.7,84,58.5,84,58.4,84"/>
	<path clip-path="url(#SVGID_6_)" fill="#939398" d="M45.2,90l-6.6-8.2c-0.1-0.1-0.2-0.1-0.4,0c-0.1,0.1-0.1,0.2,0,0.4l6.6,8.2
		c0.1,0.1,0.2,0.1,0.4,0C45.2,90.3,45.2,90.1,45.2,90"/>
	<path clip-path="url(#SVGID_6_)" fill="#939398" d="M106.7,41.7l10.2-2.3c0.1,0,0.2-0.2,0.2-0.3c0-0.1-0.2-0.2-0.3-0.2l-10.2,2.3
		c-0.1,0-0.2,0.2-0.2,0.3C106.4,41.6,106.5,41.7,106.7,41.7"/>
	<path clip-path="url(#SVGID_6_)" fill="#939398" d="M121.2,42l2.3,10.2c0,0.1,0.2,0.2,0.3,0.2c0.1,0,0.2-0.2,0.2-0.3l-2.3-10.2
		c0-0.1-0.2-0.2-0.3-0.2C121.2,41.8,121.2,41.9,121.2,42"/>
	<path clip-path="url(#SVGID_6_)" fill="#939398" d="M120.8,56.6l-10.2,2.3c-0.1,0-0.2,0.2-0.2,0.3c0,0.1,0.2,0.2,0.3,0.2l10.2-2.3
		c0.1,0,0.2-0.2,0.2-0.3C121.1,56.6,121,56.5,120.8,56.6"/>
	<path clip-path="url(#SVGID_6_)" fill="#939398" d="M106.3,56.2L104,46c0-0.1-0.2-0.2-0.3-0.2c-0.1,0-0.2,0.2-0.2,0.3l2.3,10.2
		c0,0.1,0.2,0.2,0.3,0.2C106.2,56.5,106.3,56.4,106.3,56.2"/>
	<path clip-path="url(#SVGID_6_)" fill="#939398" d="M141,50.3V39.8c0-0.1-0.1-0.2-0.2-0.2c-0.1,0-0.2,0.1-0.2,0.2v10.5
		c0,0.1,0.1,0.2,0.2,0.2C140.8,50.6,141,50.5,141,50.3"/>
	<path clip-path="url(#SVGID_6_)" fill="#939398" d="M155,53.9h-10.5c-0.1,0-0.2,0.1-0.2,0.2c0,0.1,0.1,0.2,0.2,0.2H155
		c0.1,0,0.2-0.1,0.2-0.2C155.3,54,155.2,53.9,155,53.9"/>
	<path clip-path="url(#SVGID_6_)" fill="#939398" d="M158.6,39.8v10.5c0,0.1,0.1,0.2,0.2,0.2c0.1,0,0.2-0.1,0.2-0.2V39.8
		c0-0.1-0.1-0.2-0.2-0.2C158.7,39.6,158.6,39.7,158.6,39.8"/>
	<path clip-path="url(#SVGID_6_)" fill="#939398" d="M144.5,36.2H155c0.1,0,0.2-0.1,0.2-0.2c0-0.1-0.1-0.2-0.2-0.2h-10.5
		c-0.1,0-0.2,0.1-0.2,0.2C144.3,36.1,144.4,36.2,144.5,36.2"/>
	<path clip-path="url(#SVGID_6_)" fill="#939398" d="M155,54.4c2.3,0,4.1-1.8,4.1-4.1c0-0.1-0.1-0.2-0.2-0.2s-0.2,0.1-0.2,0.2
		c0,2-1.6,3.6-3.6,3.6c-0.1,0-0.2,0.1-0.2,0.2C154.8,54.3,154.9,54.4,155,54.4z"/>
	<path clip-path="url(#SVGID_6_)" fill="#939398" d="M140.5,50.3c0,2.3,1.8,4.1,4.1,4.1c0.1,0,0.2-0.1,0.2-0.2s-0.1-0.2-0.2-0.2
		c-2,0-3.6-1.6-3.6-3.6c0-0.1-0.1-0.2-0.2-0.2C140.6,50.1,140.5,50.2,140.5,50.3"/>
	<path clip-path="url(#SVGID_6_)" fill="#939398" d="M144.5,35.7c-2.3,0-4.1,1.8-4.1,4.1c0,0.1,0.1,0.2,0.2,0.2s0.2-0.1,0.2-0.2
		c0-2,1.6-3.6,3.6-3.6c0.1,0,0.2-0.1,0.2-0.2C144.8,35.8,144.7,35.7,144.5,35.7"/>
	<path clip-path="url(#SVGID_6_)" fill="#939398" d="M209.8,62l4.6-9.5c0.1-0.1,0-0.3-0.1-0.3c-0.1-0.1-0.3,0-0.3,0.1l-4.6,9.5
		c-0.1,0.1,0,0.3,0.1,0.3C209.6,62.2,209.8,62.1,209.8,62"/>
	<path clip-path="url(#SVGID_6_)" fill="#939398" d="M221,71.4l-9.5-4.6c-0.1-0.1-0.3,0-0.3,0.1c-0.1,0.1,0,0.3,0.1,0.3l9.5,4.6
		c0.1,0.1,0.3,0,0.3-0.1C221.2,71.6,221.1,71.4,221,71.4"/>
	<path clip-path="url(#SVGID_6_)" fill="#939398" d="M230.3,60.2l-4.6,9.5c-0.1,0.1,0,0.3,0.1,0.3c0.1,0.1,0.3,0,0.3-0.1l4.6-9.5
		c0.1-0.1,0-0.3-0.1-0.3C230.5,60,230.4,60.1,230.3,60.2"/>
	<path clip-path="url(#SVGID_6_)" fill="#939398" d="M219.2,50.9l9.5,4.6c0.1,0.1,0.3,0,0.3-0.1c0.1-0.1,0-0.3-0.1-0.3l-9.5-4.6
		c-0.1-0.1-0.3,0-0.3,0.1C219,50.7,219.1,50.8,219.2,50.9"/>
	<path clip-path="url(#SVGID_6_)" fill="#939398" d="M36.3,36.4c-1.2,0.8-1.9,2.1-1.9,3.5c0,0.7,0.2,1.5,0.6,2.2
		c0.1,0.1,0.2,0.2,0.3,0.1s0.2-0.2,0.1-0.3c-0.4-0.6-0.5-1.2-0.5-1.9c0-1.2,0.6-2.4,1.7-3c0.1-0.1,0.2-0.2,0.1-0.3
		C36.6,36.3,36.4,36.3,36.3,36.4z"/>
	<path clip-path="url(#SVGID_6_)" fill="#939398" d="M40.6,50.9c0.8,1.2,2.1,1.9,3.5,1.9c0.7,0,1.5-0.2,2.2-0.6
		c0.1-0.1,0.2-0.2,0.1-0.3c-0.1-0.1-0.2-0.2-0.3-0.1c-0.6,0.4-1.2,0.5-1.9,0.5c-1.2,0-2.4-0.6-3-1.7c-0.1-0.1-0.2-0.2-0.3-0.1
		C40.6,50.6,40.6,50.8,40.6,50.9"/>
	<path clip-path="url(#SVGID_6_)" fill="#939398" d="M55.2,46.6c1.2-0.8,1.9-2.1,1.9-3.5c0-0.7-0.2-1.5-0.6-2.2
		c-0.1-0.1-0.2-0.2-0.3-0.1C56,41,56,41.1,56,41.2c0.4,0.6,0.5,1.2,0.5,1.9c0,1.2-0.6,2.4-1.7,3c-0.1,0.1-0.2,0.2-0.1,0.3
		C54.9,46.6,55.1,46.7,55.2,46.6z"/>
	<path clip-path="url(#SVGID_6_)" fill="#939398" d="M36.6,36.8l8.9-5.6c0.1-0.1,0.2-0.2,0.1-0.3c-0.1-0.1-0.2-0.2-0.3-0.1l-8.9,5.6
		c-0.1,0.1-0.2,0.2-0.1,0.3C36.3,36.8,36.5,36.9,36.6,36.8"/>
	<path clip-path="url(#SVGID_6_)" fill="#939398" d="M50.4,32.3l5.6,8.9c0.1,0.1,0.2,0.2,0.3,0.1c0.1-0.1,0.2-0.2,0.1-0.3l-5.6-8.9
		c-0.1-0.1-0.2-0.2-0.3-0.1C50.4,32.1,50.4,32.2,50.4,32.3"/>
	<path clip-path="url(#SVGID_6_)" fill="#939398" d="M54.9,46.2L46,51.8c-0.1,0.1-0.2,0.2-0.1,0.3c0.1,0.1,0.2,0.2,0.3,0.1l8.9-5.6
		c0.1-0.1,0.2-0.2,0.1-0.3C55.2,46.1,55,46.1,54.9,46.2"/>
	<path clip-path="url(#SVGID_6_)" fill="#939398" d="M41.1,50.6l-5.6-8.9c-0.1-0.1-0.2-0.2-0.3-0.1C35,41.7,35,41.9,35,42l5.6,8.9
		c0.1,0.1,0.2,0.2,0.3,0.1C41.1,50.9,41.1,50.8,41.1,50.6"/>
	<path clip-path="url(#SVGID_6_)" fill="#939398" d="M220.8,71.8c0.6,0.3,1.2,0.4,1.8,0.4c1.5,0,3-0.9,3.7-2.3
		c0.1-0.1,0-0.3-0.1-0.3c-0.1-0.1-0.3,0-0.3,0.1c-0.6,1.3-1.9,2-3.2,2c-0.5,0-1-0.1-1.6-0.4c-0.1-0.1-0.3,0-0.3,0.1
		C220.6,71.6,220.6,71.7,220.8,71.8"/>
	<path clip-path="url(#SVGID_6_)" fill="#939398" d="M209.4,61.8c-0.3,0.6-0.4,1.2-0.4,1.8c0,1.5,0.9,3,2.3,3.7
		c0.1,0.1,0.3,0,0.3-0.1c0.1-0.1,0-0.3-0.1-0.3c-1.3-0.6-2-1.9-2-3.2c0-0.5,0.1-1,0.4-1.6c0.1-0.1,0-0.3-0.1-0.3
		C209.6,61.6,209.4,61.7,209.4,61.8"/>
	<path clip-path="url(#SVGID_6_)" fill="#939398" d="M219.4,50.4c-0.6-0.3-1.2-0.4-1.8-0.4c-1.5,0-3,0.9-3.7,2.3
		c-0.1,0.1,0,0.3,0.1,0.3c0.1,0.1,0.3,0,0.3-0.1c0.6-1.3,1.9-2,3.2-2c0.5,0,1.1,0.1,1.6,0.4c0.1,0.1,0.3,0,0.3-0.1
		C219.6,50.6,219.5,50.5,219.4,50.4z"/>
	<path clip-path="url(#SVGID_6_)" fill="#939398" d="M167.5,2.9c-0.2,0-0.3,0-0.5,0c-2.1,0-3.8,1.5-4.1,3.6c0,0.1,0.1,0.3,0.2,0.3
		c0.1,0,0.3-0.1,0.3-0.2c0.2-1.8,1.8-3.2,3.6-3.2c0.1,0,0.3,0,0.4,0c0.1,0,0.3-0.1,0.3-0.2C167.7,3,167.6,2.9,167.5,2.9"/>
	<path clip-path="url(#SVGID_6_)" fill="#939398" d="M161.8,16.9c0,0.2,0,0.3,0,0.5c0,2.1,1.5,3.8,3.6,4.1c0.1,0,0.3-0.1,0.3-0.2
		c0-0.1-0.1-0.3-0.2-0.3c-1.8-0.2-3.2-1.8-3.2-3.6c0-0.1,0-0.3,0-0.4c0-0.1-0.1-0.3-0.2-0.3C162,16.7,161.8,16.8,161.8,16.9"/>
	<path clip-path="url(#SVGID_6_)" fill="#939398" d="M175.9,22.6c0.2,0,0.3,0,0.5,0c2.1,0,3.8-1.5,4.1-3.6c0-0.1-0.1-0.3-0.2-0.3
		c-0.1,0-0.3,0.1-0.3,0.2c-0.2,1.8-1.8,3.2-3.6,3.2c-0.1,0-0.3,0-0.4,0c-0.1,0-0.3,0.1-0.3,0.2C175.6,22.5,175.7,22.6,175.9,22.6"/>
	<path clip-path="url(#SVGID_6_)" fill="#939398" d="M167.5,3.4l10.4,1.2c0.1,0,0.3-0.1,0.3-0.2c0-0.1-0.1-0.3-0.2-0.3l-10.4-1.2
		c-0.1,0-0.3,0.1-0.3,0.2C167.2,3.2,167.3,3.4,167.5,3.4"/>
	<path clip-path="url(#SVGID_6_)" fill="#939398" d="M181.1,8.5L179.9,19c0,0.1,0.1,0.3,0.2,0.3c0.1,0,0.3-0.1,0.3-0.2l1.2-10.4
		c0-0.1-0.1-0.3-0.2-0.3C181.2,8.3,181.1,8.4,181.1,8.5"/>
	<path clip-path="url(#SVGID_6_)" fill="#939398" d="M175.9,22.1l-10.4-1.2c-0.1,0-0.3,0.1-0.3,0.2c0,0.1,0.1,0.3,0.2,0.3l10.4,1.2
		c0.1,0,0.3-0.1,0.3-0.2C176.2,22.3,176.1,22.1,175.9,22.1"/>
	<path clip-path="url(#SVGID_6_)" fill="#939398" d="M162.3,17l1.2-10.4c0-0.1-0.1-0.3-0.2-0.3c-0.1,0-0.3,0.1-0.3,0.2l-1.2,10.4
		c0,0.1,0.1,0.3,0.2,0.3C162.2,17.2,162.3,17.1,162.3,17"/>
	<path clip-path="url(#SVGID_6_)" fill="#939398" d="M252.5,69.8c-0.8-0.6-1.7-0.9-2.5-0.9c-1.2,0-2.4,0.5-3.2,1.5
		c-0.1,0.1-0.1,0.3,0,0.4s0.3,0.1,0.4,0c0.7-0.9,1.7-1.3,2.8-1.3c0.8,0,1.6,0.3,2.2,0.8c0.1,0.1,0.3,0.1,0.4,0
		C252.6,70.1,252.6,69.9,252.5,69.8"/>
	<path clip-path="url(#SVGID_6_)" fill="#939398" d="M240.2,78.7c-0.6,0.8-0.9,1.7-0.9,2.5c0,1.2,0.5,2.4,1.5,3.2
		c0.1,0.1,0.3,0.1,0.4,0c0.1-0.1,0.1-0.3,0-0.4c-0.9-0.7-1.3-1.7-1.3-2.8c0-0.8,0.3-1.6,0.8-2.2c0.1-0.1,0.1-0.3,0-0.4
		C240.5,78.6,240.3,78.6,240.2,78.7"/>
	<path clip-path="url(#SVGID_6_)" fill="#939398" d="M249.1,91c0.8,0.6,1.6,0.9,2.5,0.9c1.2,0,2.4-0.5,3.2-1.5
		c0.1-0.1,0.1-0.3,0-0.4s-0.3-0.1-0.4,0c-0.7,0.9-1.7,1.3-2.8,1.3c-0.8,0-1.6-0.3-2.2-0.8c-0.1-0.1-0.3-0.1-0.4,0
		C249,90.7,249,90.9,249.1,91"/>
	<path clip-path="url(#SVGID_6_)" fill="#939398" d="M278.1,66.3l7.4-7.4c0.1-0.1,0.1-0.3,0-0.4c-0.1-0.1-0.3-0.1-0.4,0l-7.4,7.4
		c-0.1,0.1-0.1,0.3,0,0.4C277.8,66.4,278,66.4,278.1,66.3"/>
	<path clip-path="url(#SVGID_6_)" fill="#939398" d="M285.5,78.8l-7.4-7.4c-0.1-0.1-0.3-0.1-0.4,0c-0.1,0.1-0.1,0.3,0,0.4l7.4,7.4
		c0.1,0.1,0.3,0.1,0.4,0C285.6,79,285.6,78.9,285.5,78.8"/>
	<path clip-path="url(#SVGID_6_)" fill="#939398" d="M298,71.3l-7.4,7.4c-0.1,0.1-0.1,0.3,0,0.4c0.1,0.1,0.3,0.1,0.4,0l7.4-7.4
		c0.1-0.1,0.1-0.3,0-0.4C298.3,71.2,298.1,71.2,298,71.3"/>
	<path clip-path="url(#SVGID_6_)" fill="#939398" d="M290.6,58.8l7.4,7.4c0.1,0.1,0.3,0.1,0.4,0c0.1-0.1,0.1-0.3,0-0.4l-7.4-7.4
		c-0.1-0.1-0.3-0.1-0.4,0C290.5,58.6,290.5,58.7,290.6,58.8"/>
	<path clip-path="url(#SVGID_6_)" fill="#939398" d="M285.2,79.1c0.8,0.8,1.8,1.2,2.9,1.2c1,0,2.1-0.4,2.9-1.2
		c0.1-0.1,0.1-0.3,0-0.4c-0.1-0.1-0.3-0.1-0.4,0c-0.7,0.7-1.6,1-2.5,1c-0.9,0-1.8-0.3-2.5-1c-0.1-0.1-0.3-0.1-0.4,0
		C285.1,78.9,285.1,79,285.2,79.1"/>
	<path clip-path="url(#SVGID_6_)" fill="#939398" d="M277.7,65.9c-0.8,0.8-1.2,1.8-1.2,2.9c0,1,0.4,2.1,1.2,2.9
		c0.1,0.1,0.3,0.1,0.4,0c0.1-0.1,0.1-0.3,0-0.4c-0.7-0.7-1-1.6-1-2.5c0-0.9,0.3-1.8,1-2.5c0.1-0.1,0.1-0.3,0-0.4
		C278,65.8,277.8,65.8,277.7,65.9z"/>
	<path clip-path="url(#SVGID_6_)" fill="#939398" d="M291,58.5c-0.8-0.8-1.8-1.2-2.9-1.2c-1,0-2.1,0.4-2.9,1.2
		c-0.1,0.1-0.1,0.3,0,0.4c0.1,0.1,0.3,0.1,0.4,0c0.7-0.7,1.6-1,2.5-1c0.9,0,1.8,0.3,2.5,1c0.1,0.1,0.3,0.1,0.4,0
		C291,58.7,291,58.6,291,58.5"/>
	<path clip-path="url(#SVGID_6_)" fill="#939398" d="M254.3,30.8c-0.7-0.4-1.4-0.6-2.2-0.6c-1.4,0-2.7,0.7-3.5,1.9
		c-0.1,0.1,0,0.3,0.1,0.3c0.1,0.1,0.3,0,0.3-0.1c0.7-1.1,1.8-1.7,3-1.7c0.7,0,1.3,0.2,1.9,0.5c0.1,0.1,0.3,0,0.3-0.1
		C254.5,31,254.5,30.9,254.3,30.8"/>
	<path clip-path="url(#SVGID_6_)" fill="#939398" d="M243.1,41c-0.4,0.7-0.6,1.4-0.6,2.2c0,1.4,0.7,2.7,1.9,3.5
		c0.1,0.1,0.3,0,0.3-0.1c0.1-0.1,0-0.3-0.1-0.3c-1.1-0.7-1.7-1.8-1.7-3c0-0.7,0.2-1.3,0.5-1.9c0.1-0.1,0-0.3-0.1-0.3
		C243.4,40.8,243.2,40.9,243.1,41"/>
	<path clip-path="url(#SVGID_6_)" fill="#939398" d="M1.2,65.9C0.4,66.7,0,67.7,0,68.8c0,1,0.4,2.1,1.2,2.9c0.1,0.1,0.3,0.1,0.4,0
		c0.1-0.1,0.1-0.3,0-0.4c-0.7-0.7-1-1.6-1-2.5c0-0.9,0.3-1.8,1-2.5c0.1-0.1,0.1-0.3,0-0.4C1.5,65.8,1.3,65.8,1.2,65.9"/>
	<path clip-path="url(#SVGID_6_)" fill="#939398" d="M8.6,79.1c0.8,0.8,1.8,1.2,2.9,1.2c1,0,2.1-0.4,2.9-1.2c0.1-0.1,0.1-0.3,0-0.4
		c-0.1-0.1-0.3-0.1-0.4,0c-0.7,0.7-1.6,1-2.5,1c-0.9,0-1.8-0.3-2.5-1c-0.1-0.1-0.3-0.1-0.4,0C8.5,78.9,8.5,79,8.6,79.1"/>
	<path clip-path="url(#SVGID_6_)" fill="#939398" d="M21.8,71.7c0.8-0.8,1.2-1.8,1.2-2.9c0-1-0.4-2.1-1.2-2.9
		c-0.1-0.1-0.3-0.1-0.4,0c-0.1,0.1-0.1,0.3,0,0.4c0.7,0.7,1,1.6,1,2.5c0,0.9-0.3,1.8-1,2.5c-0.1,0.1-0.1,0.3,0,0.4
		C21.6,71.8,21.7,71.8,21.8,71.7z"/>
	<path clip-path="url(#SVGID_6_)" fill="#939398" d="M1.5,66.3L9,58.8c0.1-0.1,0.1-0.3,0-0.4c-0.1-0.1-0.3-0.1-0.4,0l-7.4,7.4
		c-0.1,0.1-0.1,0.3,0,0.4C1.3,66.4,1.5,66.4,1.5,66.3"/>
	<path clip-path="url(#SVGID_6_)" fill="#939398" d="M14,58.8l7.4,7.4c0.1,0.1,0.3,0.1,0.4,0c0.1-0.1,0.1-0.3,0-0.4l-7.4-7.4
		c-0.1-0.1-0.3-0.1-0.4,0C13.9,58.6,13.9,58.7,14,58.8"/>
	<path clip-path="url(#SVGID_6_)" fill="#939398" d="M21.5,71.3L14,78.8c-0.1,0.1-0.1,0.3,0,0.4c0.1,0.1,0.3,0.1,0.4,0l7.4-7.4
		c0.1-0.1,0.1-0.3,0-0.4C21.7,71.2,21.6,71.2,21.5,71.3"/>
	<path clip-path="url(#SVGID_6_)" fill="#939398" d="M9,78.8l-7.4-7.4c-0.1-0.1-0.3-0.1-0.4,0c-0.1,0.1-0.1,0.3,0,0.4l7.4,7.4
		c0.1,0.1,0.3,0.1,0.4,0C9.1,79,9.1,78.9,9,78.8"/>
	<path clip-path="url(#SVGID_6_)" fill="#939398" d="M253.3,52.2c0.7,0.4,1.4,0.6,2.2,0.6c1.4,0,2.7-0.7,3.5-1.9
		c0.1-0.1,0-0.3-0.1-0.3c-0.1-0.1-0.3,0-0.3,0.1c-0.7,1.1-1.8,1.7-3,1.7c-0.7,0-1.3-0.2-1.9-0.5c-0.1-0.1-0.3,0-0.3,0.1
		C253.2,52,253.2,52.1,253.3,52.2z"/>
	<path clip-path="url(#SVGID_6_)" fill="#939398" d="M254.1,31.2l8.9,5.6c0.1,0.1,0.3,0,0.3-0.1c0.1-0.1,0-0.3-0.1-0.3l-8.9-5.6
		c-0.1-0.1-0.3,0-0.3,0.1C253.9,31,254,31.1,254.1,31.2"/>
	<path clip-path="url(#SVGID_6_)" fill="#939398" d="M264.1,41.7l-5.6,8.9c-0.1,0.1,0,0.3,0.1,0.3s0.3,0,0.3-0.1l5.6-8.9
		c0.1-0.1,0-0.3-0.1-0.3C264.3,41.6,264.2,41.6,264.1,41.7"/>
	<path clip-path="url(#SVGID_6_)" fill="#939398" d="M253.6,51.8l-8.9-5.6c-0.1-0.1-0.3,0-0.3,0.1s0,0.3,0.1,0.3l8.9,5.6
		c0.1,0.1,0.3,0,0.3-0.1C253.7,52,253.7,51.8,253.6,51.8"/>
	<path clip-path="url(#SVGID_6_)" fill="#939398" d="M243.6,41.2l5.6-8.9c0.1-0.1,0-0.3-0.1-0.3c-0.1-0.1-0.3,0-0.3,0.1l-5.6,8.9
		c-0.1,0.1,0,0.3,0.1,0.3C243.3,41.4,243.5,41.4,243.6,41.2"/>
	<path clip-path="url(#SVGID_6_)" fill="#939398" d="M252.2,70.2l8.2,6.6c0.1,0.1,0.3,0.1,0.4,0s0.1-0.3,0-0.4l-8.2-6.6
		c-0.1-0.1-0.3-0.1-0.4,0C252.1,70,252.1,70.1,252.2,70.2"/>
	<path clip-path="url(#SVGID_6_)" fill="#939398" d="M261,81.8l-6.6,8.2c-0.1,0.1-0.1,0.3,0,0.4c0.1,0.1,0.3,0.1,0.4,0l6.6-8.2
		c0.1-0.1,0.1-0.3,0-0.4S261.1,81.7,261,81.8"/>
	<path clip-path="url(#SVGID_6_)" fill="#939398" d="M249.4,90.6l-8.2-6.6c-0.1-0.1-0.3-0.1-0.4,0s-0.1,0.3,0,0.4l8.2,6.6
		c0.1,0.1,0.3,0.1,0.4,0C249.5,90.8,249.5,90.7,249.4,90.6"/>
	<path clip-path="url(#SVGID_6_)" fill="#939398" d="M240.6,79l6.6-8.2c0.1-0.1,0.1-0.3,0-0.4c-0.1-0.1-0.3-0.1-0.4,0l-6.6,8.2
		c-0.1,0.1-0.1,0.3,0,0.4C240.4,79.1,240.5,79.1,240.6,79"/>
	<path clip-path="url(#SVGID_6_)" fill="#939398" d="M106.5,41.2c-1.9,0.4-3.2,2.1-3.2,4c0,0.3,0,0.6,0.1,0.9c0,0.1,0.2,0.2,0.3,0.2
		c0.1,0,0.2-0.2,0.2-0.3c-0.1-0.3-0.1-0.5-0.1-0.8c0-1.6,1.1-3.1,2.8-3.5c0.1,0,0.2-0.2,0.2-0.3C106.8,41.2,106.7,41.2,106.5,41.2z"
		/>
	<path clip-path="url(#SVGID_6_)" fill="#939398" d="M121.6,4.1c-2.1,0.2-3.6,2-3.6,4.1c0,0.2,0,0.3,0,0.5c0,0.1,0.1,0.2,0.3,0.2
		c0.1,0,0.2-0.1,0.2-0.3c0-0.1,0-0.3,0-0.4c0-1.8,1.4-3.3,3.2-3.6c0.1,0,0.2-0.1,0.2-0.3C121.9,4.1,121.8,4,121.6,4.1z"/>
	<path clip-path="url(#SVGID_6_)" fill="#939398" d="M119.2,19c0.2,2.1,2,3.6,4,3.6c0.2,0,0.3,0,0.5,0c0.1,0,0.2-0.1,0.2-0.3
		c0-0.1-0.1-0.2-0.3-0.2c-0.1,0-0.3,0-0.4,0c-1.8,0-3.3-1.4-3.6-3.2c0-0.1-0.1-0.2-0.3-0.2C119.3,18.8,119.2,18.9,119.2,19z"/>
	<path clip-path="url(#SVGID_6_)" fill="#939398" d="M134.2,21.4c2.1-0.2,3.6-2,3.6-4c0-0.2,0-0.3,0-0.5c0-0.1-0.1-0.2-0.3-0.2
		c-0.1,0-0.2,0.1-0.2,0.3c0,0.1,0,0.3,0,0.4c0,1.8-1.4,3.3-3.2,3.6c-0.1,0-0.2,0.1-0.2,0.3C133.9,21.4,134,21.5,134.2,21.4z"/>
	<path clip-path="url(#SVGID_6_)" fill="#939398" d="M121.7,4.6l10.4-1.2c0.1,0,0.2-0.1,0.2-0.3c0-0.1-0.1-0.2-0.3-0.2l-10.4,1.2
		c-0.1,0-0.2,0.1-0.2,0.3C121.4,4.5,121.5,4.6,121.7,4.6"/>
	<path clip-path="url(#SVGID_6_)" fill="#939398" d="M136.1,6.5l1.2,10.4c0,0.1,0.1,0.2,0.3,0.2c0.1,0,0.2-0.1,0.2-0.3l-1.2-10.4
		c0-0.1-0.1-0.2-0.3-0.2C136.2,6.3,136.1,6.4,136.1,6.5"/>
	<path clip-path="url(#SVGID_6_)" fill="#939398" d="M134.1,20.9l-10.4,1.2c-0.1,0-0.2,0.1-0.2,0.3c0,0.1,0.1,0.2,0.3,0.2l10.4-1.2
		c0.1,0,0.2-0.1,0.2-0.3C134.4,21,134.2,20.9,134.1,20.9"/>
	<path clip-path="url(#SVGID_6_)" fill="#939398" d="M119.7,19l-1.2-10.4c0-0.1-0.1-0.2-0.3-0.2c-0.1,0-0.2,0.1-0.2,0.3l1.2,10.4
		c0,0.1,0.1,0.2,0.3,0.2C119.6,19.2,119.7,19.1,119.7,19"/>
	<path clip-path="url(#SVGID_6_)" fill="#939398" d="M70.7,55c-1.5,0.7-2.3,2.2-2.3,3.7c0,0.6,0.1,1.2,0.4,1.8
		c0.1,0.1,0.2,0.2,0.3,0.1c0.1-0.1,0.2-0.2,0.1-0.3c-0.2-0.5-0.4-1-0.4-1.6c0-1.3,0.7-2.6,2-3.2c0.1-0.1,0.2-0.2,0.1-0.3
		C71,55,70.8,54.9,70.7,55z"/>
	<path clip-path="url(#SVGID_6_)" fill="#939398" d="M73.4,69.9c0.7,1.5,2.2,2.3,3.7,2.3c0.6,0,1.2-0.1,1.8-0.4
		c0.1-0.1,0.2-0.2,0.1-0.3c-0.1-0.1-0.2-0.2-0.3-0.1c-0.5,0.2-1,0.4-1.6,0.4c-1.3,0-2.6-0.7-3.2-2c-0.1-0.1-0.2-0.2-0.3-0.1
		C73.4,69.6,73.3,69.8,73.4,69.9z"/>
	<path clip-path="url(#SVGID_6_)" fill="#939398" d="M88.3,67.2c1.5-0.7,2.3-2.2,2.3-3.7c0-0.6-0.1-1.2-0.4-1.8
		c-0.1-0.1-0.2-0.2-0.3-0.1c-0.1,0.1-0.2,0.2-0.1,0.3c0.2,0.5,0.4,1,0.4,1.6c0,1.3-0.7,2.6-2,3.2c-0.1,0.1-0.2,0.2-0.1,0.3
		C88,67.2,88.2,67.3,88.3,67.2"/>
	<path clip-path="url(#SVGID_6_)" fill="#939398" d="M70.9,55.4l9.5-4.6c0.1-0.1,0.2-0.2,0.1-0.3s-0.2-0.2-0.3-0.1L70.7,55
		c-0.1,0.1-0.2,0.2-0.1,0.3C70.7,55.4,70.8,55.5,70.9,55.4"/>
	<path clip-path="url(#SVGID_6_)" fill="#939398" d="M176.1,52.3l2.3-10.2c0-0.1-0.1-0.3-0.2-0.3c-0.1,0-0.3,0.1-0.3,0.2l-2.3,10.2
		c0,0.1,0.1,0.3,0.2,0.3C175.9,52.5,176,52.4,176.1,52.3"/>
	<path clip-path="url(#SVGID_6_)" fill="#939398" d="M189,58.9l-10.2-2.3c-0.1,0-0.3,0.1-0.3,0.2c0,0.1,0.1,0.3,0.2,0.3l10.2,2.3
		c0.1,0,0.3-0.1,0.3-0.2C189.2,59.1,189.1,58.9,189,58.9"/>
	<path clip-path="url(#SVGID_6_)" fill="#939398" d="M195.6,46l-2.3,10.2c0,0.1,0.1,0.3,0.2,0.3c0.1,0,0.3-0.1,0.3-0.2l2.3-10.2
		c0-0.1-0.1-0.3-0.2-0.3C195.8,45.8,195.7,45.8,195.6,46"/>
	<path clip-path="url(#SVGID_6_)" fill="#939398" d="M182.7,39.3l10.2,2.3c0.1,0,0.3-0.1,0.3-0.2c0-0.1-0.1-0.3-0.2-0.3l-10.2-2.3
		c-0.1,0-0.3,0.1-0.3,0.2C182.5,39.2,182.5,39.3,182.7,39.3"/>
	<path clip-path="url(#SVGID_6_)" fill="#939398" d="M188.9,59.4c0.3,0.1,0.6,0.1,0.9,0.1c1.9,0,3.5-1.3,4-3.2
		c0-0.1-0.1-0.3-0.2-0.3c-0.1,0-0.3,0.1-0.3,0.2c-0.4,1.7-1.9,2.8-3.5,2.8c-0.3,0-0.5,0-0.8-0.1c-0.1,0-0.3,0.1-0.3,0.2
		C188.7,59.2,188.8,59.4,188.9,59.4"/>
	<path clip-path="url(#SVGID_6_)" fill="#939398" d="M175.6,52.2c-0.1,0.3-0.1,0.6-0.1,0.9c0,1.9,1.3,3.5,3.2,4
		c0.1,0,0.3-0.1,0.3-0.2c0-0.1-0.1-0.3-0.2-0.3c-1.7-0.4-2.8-1.9-2.8-3.5c0-0.3,0-0.5,0.1-0.8c0-0.1-0.1-0.3-0.2-0.3
		C175.7,52,175.6,52,175.6,52.2"/>
	<path clip-path="url(#SVGID_6_)" fill="#939398" d="M182.8,38.9c-0.3-0.1-0.6-0.1-0.9-0.1c-1.9,0-3.5,1.3-4,3.2
		c0,0.1,0.1,0.3,0.2,0.3c0.1,0,0.3-0.1,0.3-0.2c0.4-1.7,1.9-2.8,3.5-2.8c0.3,0,0.5,0,0.8,0.1c0.1,0,0.3-0.1,0.3-0.2
		C183,39,182.9,38.9,182.8,38.9z"/>
	<path clip-path="url(#SVGID_6_)" fill="#939398" d="M85.2,52.5l4.6,9.5c0.1,0.1,0.2,0.2,0.3,0.1s0.2-0.2,0.1-0.3l-4.6-9.5
		c-0.1-0.1-0.2-0.2-0.3-0.1C85.2,52.3,85.1,52.4,85.2,52.5"/>
	<path clip-path="url(#SVGID_6_)" fill="#939398" d="M88.1,66.8l-9.5,4.6c-0.1,0.1-0.2,0.2-0.1,0.3c0.1,0.1,0.2,0.2,0.3,0.1l9.5-4.6
		c0.1-0.1,0.2-0.2,0.1-0.3C88.3,66.8,88.2,66.7,88.1,66.8"/>
	<path clip-path="url(#SVGID_6_)" fill="#939398" d="M73.8,69.7l-4.6-9.5c-0.1-0.1-0.2-0.2-0.3-0.1s-0.2,0.2-0.1,0.3l4.6,9.5
		c0.1,0.1,0.2,0.2,0.3,0.1C73.8,70,73.9,69.8,73.8,69.7"/>
	<path clip-path="url(#SVGID_6_)" fill="#939398" d="M105.8,56.3c0.4,1.9,2.1,3.2,4,3.2c0.3,0,0.6,0,0.9-0.1c0.1,0,0.2-0.2,0.2-0.3
		c0-0.1-0.2-0.2-0.3-0.2c-0.3,0.1-0.5,0.1-0.8,0.1c-1.6,0-3.1-1.1-3.5-2.8c0-0.1-0.2-0.2-0.3-0.2C105.9,56.1,105.8,56.2,105.8,56.3"
		/>
	<path clip-path="url(#SVGID_6_)" fill="#939398" d="M120.9,57.1c1.9-0.4,3.2-2.1,3.2-4c0-0.3,0-0.6-0.1-0.9c0-0.1-0.2-0.2-0.3-0.2
		c-0.1,0-0.2,0.2-0.2,0.3c0.1,0.3,0.1,0.5,0.1,0.8c0,1.6-1.1,3.1-2.8,3.5c-0.1,0-0.2,0.2-0.2,0.3C120.7,57,120.8,57.1,120.9,57.1"/>
	<path clip-path="url(#SVGID_6_)" fill="#939398" d="M38.9,76.4c-1,0.8-1.5,2-1.5,3.2c0,0.9,0.3,1.8,0.9,2.5c0.1,0.1,0.2,0.1,0.4,0
		s0.1-0.2,0-0.4c-0.5-0.7-0.8-1.4-0.8-2.2c0-1.1,0.5-2.1,1.3-2.8c0.1-0.1,0.1-0.2,0-0.4C39.1,76.3,39,76.3,38.9,76.4"/>
	<path clip-path="url(#SVGID_6_)" fill="#939398" d="M44.8,90.3c0.8,1,2,1.5,3.2,1.5c0.9,0,1.8-0.3,2.5-0.9c0.1-0.1,0.1-0.2,0-0.4
		s-0.2-0.1-0.4,0c-0.7,0.5-1.4,0.8-2.2,0.8c-1.1,0-2.1-0.5-2.8-1.3c-0.1-0.1-0.2-0.1-0.4,0C44.7,90.1,44.7,90.2,44.8,90.3z"/>
	<path clip-path="url(#SVGID_6_)" fill="#939398" d="M212.5,11.9c-0.4-0.2-0.9-0.2-1.3-0.2c-1.7,0-3.3,1.1-3.9,2.7
		c0,0.1,0,0.3,0.2,0.3c0.1,0,0.3,0,0.3-0.2c0.5-1.5,1.9-2.4,3.4-2.4c0.4,0,0.8,0.1,1.2,0.2c0.1,0,0.3,0,0.3-0.2
		C212.7,12.1,212.6,12,212.5,11.9"/>
	<path clip-path="url(#SVGID_6_)" fill="#939398" d="M203.8,24.4c-0.2,0.4-0.2,0.9-0.2,1.3c0,1.7,1.1,3.3,2.7,3.9
		c0.1,0,0.3,0,0.3-0.2c0-0.1,0-0.3-0.2-0.3c-1.5-0.5-2.4-1.9-2.4-3.4c0-0.4,0.1-0.8,0.2-1.2c0-0.1,0-0.3-0.2-0.3
		C204,24.2,203.9,24.2,203.8,24.4"/>
	<path clip-path="url(#SVGID_6_)" fill="#939398" d="M216.3,33c0.4,0.2,0.9,0.2,1.3,0.2c1.7,0,3.3-1.1,3.9-2.7c0-0.1,0-0.3-0.2-0.3
		c-0.1,0-0.3,0-0.3,0.2c-0.5,1.5-1.9,2.4-3.4,2.4c-0.4,0-0.8-0.1-1.2-0.2c-0.1,0-0.3,0-0.3,0.2C216.1,32.8,216.1,33,216.3,33z"/>
	<path clip-path="url(#SVGID_6_)" fill="#939398" d="M212.3,12.4l9.9,3.5c0.1,0,0.3,0,0.3-0.2c0-0.1,0-0.3-0.2-0.3l-9.9-3.5
		c-0.1,0-0.3,0-0.3,0.2C212.1,12.2,212.2,12.4,212.3,12.4"/>
	<path clip-path="url(#SVGID_6_)" fill="#939398" d="M77.2,15.4c-1.7,0.6-2.7,2.2-2.7,3.9c0,0.4,0.1,0.9,0.2,1.3
		c0,0.1,0.2,0.2,0.3,0.2c0.1,0,0.2-0.2,0.2-0.3c-0.1-0.4-0.2-0.8-0.2-1.2c0-1.5,0.9-2.9,2.4-3.4c0.1,0,0.2-0.2,0.2-0.3
		C77.4,15.4,77.3,15.4,77.2,15.4"/>
	<path clip-path="url(#SVGID_6_)" fill="#939398" d="M78.1,30.5c0.6,1.7,2.2,2.7,3.9,2.7c0.4,0,0.9-0.1,1.3-0.2
		c0.1,0,0.2-0.2,0.2-0.3c0-0.1-0.2-0.2-0.3-0.2c-0.4,0.1-0.8,0.2-1.2,0.2c-1.5,0-2.9-0.9-3.4-2.4c0-0.1-0.2-0.2-0.3-0.2
		C78.1,30.3,78.1,30.4,78.1,30.5z"/>
	<path clip-path="url(#SVGID_6_)" fill="#939398" d="M93.2,29.6c1.7-0.6,2.7-2.2,2.7-3.9c0-0.4-0.1-0.9-0.2-1.3
		c0-0.1-0.2-0.2-0.3-0.2c-0.1,0-0.2,0.2-0.2,0.3c0.1,0.4,0.2,0.8,0.2,1.2c0,1.5-0.9,2.9-2.4,3.4c-0.1,0-0.2,0.2-0.2,0.3
		C93,29.5,93.1,29.6,93.2,29.6z"/>
	<path clip-path="url(#SVGID_6_)" fill="#939398" d="M77.3,15.9l9.9-3.5c0.1,0,0.2-0.2,0.2-0.3c0-0.1-0.2-0.2-0.3-0.2l-9.9,3.5
		c-0.1,0-0.2,0.2-0.2,0.3C77.1,15.9,77.2,15.9,77.3,15.9"/>
	<path clip-path="url(#SVGID_6_)" fill="#939398" d="M91.8,14.6l3.5,9.9c0,0.1,0.2,0.2,0.3,0.2c0.1,0,0.2-0.2,0.2-0.3l-3.5-9.9
		c0-0.1-0.2-0.2-0.3-0.2C91.8,14.3,91.8,14.5,91.8,14.6"/>
	<path clip-path="url(#SVGID_6_)" fill="#939398" d="M176.5,326.4c0,10.4,0,20.8,0,31.2c0,3.1-1.2,5.9-3.3,7.9c-2,2-4.8,3.3-7.9,3.3
		h-31.2c-3.1,0-5.9-1.2-7.9-3.3c-2-2-3.3-4.8-3.3-7.9v-31.2c0-3.1,1.2-5.9,3.3-7.9c2-2,4.8-3.3,7.9-3.3h31.2c0.1,0,0.2-0.1,0.2-0.2
		s-0.1-0.2-0.2-0.2h-31.2c-6.4,0-11.6,5.2-11.6,11.6c0,10.4,0,20.8,0,31.2c0,6.4,5.2,11.6,11.6,11.6h31.2c6.4,0,11.6-5.2,11.6-11.6
		v-31.2c0-0.1-0.1-0.2-0.2-0.2C176.7,326.2,176.5,326.3,176.5,326.4"/>
	<path clip-path="url(#SVGID_6_)" fill="#939398" d="M93.1,29.1l-9.9,3.5c-0.1,0-0.2,0.2-0.2,0.3c0,0.1,0.2,0.2,0.3,0.2l9.9-3.5
		c0.1,0,0.2-0.2,0.2-0.3C93.4,29.1,93.2,29,93.1,29.1"/>
	<path clip-path="url(#SVGID_6_)" fill="#D0D2D3" d="M150.3,180.1V58.6c0-0.3-0.2-0.5-0.5-0.5c-0.3,0-0.5,0.2-0.5,0.5v121.5
		c0,0.3,0.2,0.5,0.5,0.5C150.1,180.6,150.3,180.3,150.3,180.1"/>
</g>
<polygon fill="#BCBEBE" points="151.2,59.6 149.8,54.2 148.3,59.6 "/>
<g>
	<defs>
		<rect id="SVGID_7_" width="303.4" height="369.3"/>
	</defs>
	<clipPath id="SVGID_8_">
		<use xlink:href="#SVGID_7_"  overflow="visible"/>
	</clipPath>
	<path clip-path="url(#SVGID_8_)" fill="#D0D2D3" d="M129.6,180.9l-72-90.2c-0.2-0.2-0.5-0.3-0.7-0.1c-0.2,0.2-0.3,0.5-0.1,0.7
		l72,90.2c0.2,0.2,0.5,0.3,0.7,0.1C129.7,181.4,129.7,181.1,129.6,180.9"/>
</g>
<polygon fill="#BCBEBE" points="59,90.8 54.5,87.5 56.7,92.7 "/>
<g>
	<defs>
		<rect id="SVGID_9_" width="303.4" height="369.3"/>
	</defs>
	<clipPath id="SVGID_10_">
		<use xlink:href="#SVGID_9_"  overflow="visible"/>
	</clipPath>
	<path clip-path="url(#SVGID_10_)" fill="#BCBEBE" d="M137.2,179.8L85.8,73.1c-0.1-0.2-0.4-0.4-0.7-0.2c-0.2,0.1-0.4,0.4-0.2,0.7
		l51.4,106.8c0.1,0.2,0.4,0.4,0.7,0.2C137.3,180.4,137.4,180.1,137.2,179.8"/>
</g>
<polygon fill="#BCBEBE" points="87.1,73.5 83.4,69.3 84.5,74.8 "/>
<g>
	<defs>
		<rect id="SVGID_11_" width="303.4" height="369.3"/>
	</defs>
	<clipPath id="SVGID_12_">
		<use xlink:href="#SVGID_11_"  overflow="visible"/>
	</clipPath>
	<path clip-path="url(#SVGID_12_)" fill="#D0D2D3" d="M144.1,180L117.2,62.2c-0.1-0.3-0.3-0.4-0.6-0.4c-0.3,0.1-0.4,0.3-0.4,0.6
		l26.9,117.8c0.1,0.3,0.3,0.4,0.6,0.4C144,180.5,144.2,180.2,144.1,180"/>
</g>
<polygon fill="#BCBEBE" points="118.4,62.9 115.8,58 115.6,63.6 "/>
<g>
	<defs>
		<rect id="SVGID_13_" width="303.4" height="369.3"/>
	</defs>
	<clipPath id="SVGID_14_">
		<use xlink:href="#SVGID_13_"  overflow="visible"/>
	</clipPath>
	<path clip-path="url(#SVGID_14_)" fill="#D0D2D3" d="M156.4,180.2l26.9-117.8c0.1-0.3-0.1-0.5-0.4-0.6c-0.3-0.1-0.5,0.1-0.6,0.4
		L155.5,180c-0.1,0.3,0.1,0.5,0.4,0.6C156.1,180.6,156.4,180.4,156.4,180.2"/>
</g>
<polygon fill="#BCBEBE" points="184,63.6 183.8,58 181.2,62.9 "/>
<g>
	<defs>
		<rect id="SVGID_15_" width="303.4" height="369.3"/>
	</defs>
	<clipPath id="SVGID_16_">
		<use xlink:href="#SVGID_15_"  overflow="visible"/>
	</clipPath>
	<path clip-path="url(#SVGID_16_)" fill="#BCBEBE" d="M163.2,180.3l51.4-106.8c0.1-0.2,0-0.5-0.2-0.7c-0.2-0.1-0.5,0-0.7,0.2
		l-51.4,106.8c-0.1,0.2,0,0.5,0.2,0.7C162.8,180.6,163.1,180.5,163.2,180.3"/>
</g>
<polygon fill="#BCBEBE" points="215.1,74.8 216.1,69.3 212.5,73.5 "/>
<g>
	<defs>
		<rect id="SVGID_17_" width="303.4" height="369.3"/>
	</defs>
	<clipPath id="SVGID_18_">
		<use xlink:href="#SVGID_17_"  overflow="visible"/>
	</clipPath>
	<path clip-path="url(#SVGID_18_)" fill="#D0D2D3" d="M170.8,181.5l72-90.2c0.2-0.2,0.1-0.5-0.1-0.7c-0.2-0.2-0.5-0.1-0.7,0.1
		l-72,90.2c-0.2,0.2-0.1,0.5,0.1,0.7C170.3,181.8,170.6,181.7,170.8,181.5"/>
</g>
<polygon fill="#BCBEBE" points="242.9,92.7 245.1,87.5 240.6,90.8 "/>
<g>
	<defs>
		<rect id="SVGID_19_" width="303.4" height="369.3"/>
	</defs>
	<clipPath id="SVGID_20_">
		<use xlink:href="#SVGID_19_"  overflow="visible"/>
	</clipPath>
	<path clip-path="url(#SVGID_20_)" fill="#BCBEBE" d="M126.5,183L21.4,78c-0.2-0.2-0.5-0.2-0.7,0c-0.2,0.2-0.2,0.5,0,0.7
		l105.1,105.1c0.2,0.2,0.5,0.2,0.7,0C126.7,183.6,126.7,183.2,126.5,183"/>
</g>
<polygon fill="#BCBEBE" points="22.8,78 17.9,75.2 20.7,80.1 "/>
<g>
	<defs>
		<rect id="SVGID_21_" width="303.4" height="369.3"/>
	</defs>
	<clipPath id="SVGID_22_">
		<use xlink:href="#SVGID_21_"  overflow="visible"/>
	</clipPath>
	<path clip-path="url(#SVGID_22_)" fill="#D0D2D3" d="M133.3,179.9L53.4,52.7c-0.1-0.2-0.5-0.3-0.7-0.2c-0.2,0.1-0.3,0.5-0.2,0.7
		l79.9,127.2c0.1,0.2,0.5,0.3,0.7,0.2C133.4,180.4,133.4,180.1,133.3,179.9"/>
</g>
<polygon fill="#BCBEBE" points="54.7,53 50.6,49.2 52.2,54.5 "/>
<g>
	<defs>
		<rect id="SVGID_23_" width="303.4" height="369.3"/>
	</defs>
	<clipPath id="SVGID_24_">
		<use xlink:href="#SVGID_23_"  overflow="visible"/>
	</clipPath>
	<path clip-path="url(#SVGID_24_)" fill="#D0D2D3" d="M140.8,179.9L90.1,35.1c-0.1-0.3-0.4-0.4-0.6-0.3c-0.3,0.1-0.4,0.4-0.3,0.6
		l50.7,144.8c0.1,0.3,0.4,0.4,0.6,0.3C140.8,180.4,140.9,180.2,140.8,179.9"/>
</g>
<polygon fill="#BCBEBE" points="91.4,35.7 88.2,31.1 88.6,36.7 "/>
<g>
	<defs>
		<rect id="SVGID_25_" width="303.4" height="369.3"/>
	</defs>
	<clipPath id="SVGID_26_">
		<use xlink:href="#SVGID_25_"  overflow="visible"/>
	</clipPath>
	<path clip-path="url(#SVGID_26_)" fill="#D0D2D3" d="M147.2,180L129.9,26.1c0-0.3-0.3-0.5-0.6-0.4c-0.3,0-0.5,0.3-0.4,0.6
		l17.3,153.9c0,0.3,0.3,0.5,0.6,0.4S147.3,180.3,147.2,180"/>
</g>
<polygon fill="#BCBEBE" points="131,27 128.9,21.8 128.1,27.3 "/>
<g>
	<defs>
		<rect id="SVGID_27_" width="303.4" height="369.3"/>
	</defs>
	<clipPath id="SVGID_28_">
		<use xlink:href="#SVGID_27_"  overflow="visible"/>
	</clipPath>
	<path clip-path="url(#SVGID_28_)" fill="#D0D2D3" d="M153.3,180.1l17.3-153.9c0-0.3-0.2-0.5-0.4-0.6c-0.3,0-0.5,0.2-0.6,0.4
		L152.3,180c0,0.3,0.2,0.5,0.4,0.6C153.1,180.6,153.3,180.4,153.3,180.1"/>
</g>
<polygon fill="#BCBEBE" points="171.5,27.3 170.7,21.8 168.6,27 "/>
<g>
	<defs>
		<rect id="SVGID_29_" width="303.4" height="369.3"/>
	</defs>
	<clipPath id="SVGID_30_">
		<use xlink:href="#SVGID_29_"  overflow="visible"/>
	</clipPath>
	<path clip-path="url(#SVGID_30_)" fill="#D0D2D3" d="M159.7,180.2l50.7-144.8c0.1-0.3,0-0.5-0.3-0.6c-0.3-0.1-0.5,0-0.6,0.3
		l-50.7,144.8c-0.1,0.3,0,0.5,0.3,0.6S159.6,180.5,159.7,180.2"/>
</g>
<polygon fill="#BCBEBE" points="211,36.7 211.4,31.1 208.2,35.7 "/>
<g>
	<defs>
		<rect id="SVGID_31_" width="303.4" height="369.3"/>
	</defs>
	<clipPath id="SVGID_32_">
		<use xlink:href="#SVGID_31_"  overflow="visible"/>
	</clipPath>
	<path clip-path="url(#SVGID_32_)" fill="#BCBEBE" d="M167.1,180.4l79.9-127.2c0.1-0.2,0.1-0.5-0.2-0.7c-0.2-0.1-0.5-0.1-0.7,0.2
		l-79.9,127.2c-0.1,0.2-0.1,0.5,0.2,0.7C166.7,180.7,167,180.6,167.1,180.4"/>
</g>
<polygon fill="#BCBEBE" points="247.3,54.5 249,49.2 244.9,53 "/>
<g>
	<defs>
		<rect id="SVGID_33_" width="303.4" height="369.3"/>
	</defs>
	<clipPath id="SVGID_34_">
		<use xlink:href="#SVGID_33_"  overflow="visible"/>
	</clipPath>
	<path clip-path="url(#SVGID_34_)" fill="#D0D2D3" d="M173.8,183.8L278.9,78.7c0.2-0.2,0.2-0.5,0-0.7c-0.2-0.2-0.5-0.2-0.7,0
		L173.1,183c-0.2,0.2-0.2,0.5,0,0.7C173.3,183.9,173.6,183.9,173.8,183.8"/>
</g>
<polygon fill="#BCBEBE" points="278.8,80.1 281.6,75.2 276.8,78 "/>
<polyline fill="#A5A7AA" points="151.3,315.1 151.3,242.8 148.3,242.8 148.3,315.1 "/>
<polygon fill="#A5A7AA" points="152.7,244.8 149.8,234.1 146.9,244.8 "/>
<g>
	<defs>
		<rect id="SVGID_35_" width="303.4" height="369.3"/>
	</defs>
	<clipPath id="SVGID_36_">
		<use xlink:href="#SVGID_35_"  overflow="visible"/>
	</clipPath>
	<path clip-path="url(#SVGID_36_)" fill="#939398" d="M176.8,191.4h-0.5v31.2c0,3-1.2,5.7-3.2,7.7c-2,2-4.7,3.2-7.7,3.2h-31.2
		c-3,0-5.7-1.2-7.7-3.2c-2-2-3.2-4.7-3.2-7.7v-31.2c0-3,1.2-5.7,3.2-7.7c2-2,4.7-3.2,7.7-3.2h31.2c3,0,5.7,1.2,7.7,3.2
		c2,2,3.2,4.7,3.2,7.7H176.8h0.5c0-6.6-5.3-11.9-11.9-11.9h-31.2c-6.6,0-11.9,5.3-11.9,11.9v31.2c0,6.6,5.3,11.9,11.9,11.9h31.2
		c6.6,0,11.9-5.3,11.9-11.9v-31.2H176.8z"/>
	<path clip-path="url(#SVGID_36_)" fill="#BCBEBE" d="M223.6,71.8c0.3,1.3,0.7,2.6,1,3.9c0,0.1,0.2,0.2,0.3,0.2
		c0.1,0,0.2-0.2,0.2-0.3c-0.3-1.3-0.7-2.6-1-3.9c0-0.1-0.2-0.2-0.3-0.2C223.6,71.5,223.5,71.7,223.6,71.8"/>
	<path clip-path="url(#SVGID_36_)" fill="#BCBEBE" d="M225.6,79.6c0.6,2.6,1.2,5.3,1.8,7.9c0,0.1,0.2,0.2,0.3,0.2
		c0.1,0,0.2-0.2,0.2-0.3c-0.6-2.7-1.2-5.3-1.8-8c0-0.1-0.2-0.2-0.3-0.2C225.6,79.3,225.6,79.5,225.6,79.6 M228.2,91.5
		c0.5,2.7,1,5.3,1.5,8c0,0.1,0.2,0.2,0.3,0.2c0.1,0,0.2-0.2,0.2-0.3c-0.5-2.7-0.9-5.4-1.5-8c0-0.1-0.2-0.2-0.3-0.2
		C228.3,91.3,228.2,91.4,228.2,91.5 M230.3,103.6c0.4,2.7,0.8,5.4,1.1,8.1c0,0.1,0.1,0.2,0.3,0.2c0.1,0,0.2-0.1,0.2-0.3
		c-0.3-2.7-0.7-5.4-1.1-8.1c0-0.1-0.1-0.2-0.3-0.2C230.4,103.3,230.3,103.4,230.3,103.6 M231.9,115.7c0.3,2.7,0.5,5.4,0.7,8.1
		c0,0.1,0.1,0.2,0.3,0.2c0.1,0,0.2-0.1,0.2-0.3c-0.2-2.7-0.4-5.4-0.7-8.1c0-0.1-0.1-0.2-0.3-0.2C232,115.4,231.9,115.6,231.9,115.7
		 M232.9,127.9c0.2,2.7,0.3,5.4,0.3,8.1c0,0.1,0.1,0.2,0.3,0.2s0.2-0.1,0.2-0.3c-0.1-2.7-0.2-5.4-0.3-8.2c0-0.1-0.1-0.2-0.3-0.2
		C233,127.6,232.9,127.7,232.9,127.9 M233.2,140.1c0,0.2,0,0.5,0,0.7c0,2.5,0,5-0.1,7.4c0,0.1,0.1,0.3,0.2,0.3s0.3-0.1,0.3-0.2
		c0.1-2.5,0.1-5,0.1-7.4c0-0.2,0-0.5,0-0.7c0-0.1-0.1-0.2-0.3-0.2C233.3,139.8,233.2,139.9,233.2,140.1 M233,152.3
		c-0.1,2.7-0.3,5.4-0.4,8.1c0,0.1,0.1,0.3,0.2,0.3c0.1,0,0.3-0.1,0.3-0.2c0.2-2.7,0.3-5.4,0.4-8.1c0-0.1-0.1-0.3-0.2-0.3
		S233,152.2,233,152.3 M232.2,164.5c-0.2,2.7-0.5,5.4-0.8,8.1c0,0.1,0.1,0.3,0.2,0.3c0.1,0,0.3-0.1,0.3-0.2c0.3-2.7,0.6-5.4,0.8-8.1
		c0-0.1-0.1-0.3-0.2-0.3C232.4,164.2,232.2,164.3,232.2,164.5 M230.9,176.6c-0.3,2.7-0.7,5.4-1.1,8.1c0,0.1,0.1,0.3,0.2,0.3
		c0.1,0,0.3-0.1,0.3-0.2c0.4-2.7,0.8-5.4,1.1-8.1c0-0.1-0.1-0.3-0.2-0.3C231.1,176.4,231,176.5,230.9,176.6 M229.1,188.7
		c-0.5,2.7-1,5.3-1.5,8c0,0.1,0.1,0.3,0.2,0.3c0.1,0,0.3-0.1,0.3-0.2c0.5-2.7,1-5.3,1.5-8c0-0.1-0.1-0.3-0.2-0.3
		C229.3,188.5,229.2,188.5,229.1,188.7 M226.8,200.7c-0.6,2.6-1.2,5.3-1.8,7.9c0,0.1,0.1,0.3,0.2,0.3c0.1,0,0.3-0.1,0.3-0.2
		c0.6-2.6,1.2-5.3,1.8-7.9c0-0.1-0.1-0.3-0.2-0.3C227,200.4,226.9,200.5,226.8,200.7z M224,212.5c-0.7,2.6-1.4,5.2-2.1,7.9
		c0,0.1,0,0.3,0.2,0.3c0.1,0,0.3,0,0.3-0.2c0.8-2.6,1.5-5.2,2.1-7.9c0-0.1,0-0.3-0.2-0.3C224.2,212.3,224.1,212.4,224,212.5
		 M220.8,224.3c-0.8,2.6-1.6,5.2-2.4,7.8c0,0.1,0,0.3,0.2,0.3c0.1,0,0.3,0,0.3-0.2c0.9-2.6,1.7-5.2,2.4-7.8c0-0.1,0-0.3-0.2-0.3
		C220.9,224.1,220.8,224.2,220.8,224.3 M217,235.9c-0.9,2.6-1.8,5.1-2.7,7.7c0,0.1,0,0.3,0.1,0.3c0.1,0,0.3,0,0.3-0.1
		c0.9-2.6,1.9-5.1,2.7-7.7c0-0.1,0-0.3-0.2-0.3C217.2,235.7,217.1,235.8,217,235.9 M212.9,247.4c-1,2.5-2,5-3,7.6
		c-0.1,0.1,0,0.3,0.1,0.3c0.1,0.1,0.3,0,0.3-0.1c1-2.5,2-5.1,3-7.6c0-0.1,0-0.3-0.1-0.3C213.1,247.2,212.9,247.3,212.9,247.4
		 M208.3,258.8c-1.1,2.5-2.1,5-3.3,7.5c-0.1,0.1,0,0.3,0.1,0.3c0.1,0.1,0.3,0,0.3-0.1c1.1-2.5,2.2-5,3.3-7.5c0.1-0.1,0-0.3-0.1-0.3
		S208.3,258.6,208.3,258.8 M203.3,269.9c-1.1,2.4-2.3,4.9-3.5,7.3c-0.1,0.1,0,0.3,0.1,0.3c0.1,0.1,0.3,0,0.3-0.1
		c1.2-2.5,2.4-4.9,3.5-7.4c0.1-0.1,0-0.3-0.1-0.3C203.5,269.7,203.4,269.8,203.3,269.9 M198,280.9c-1.2,2.4-2.5,4.8-3.8,7.2
		c-0.1,0.1,0,0.3,0.1,0.3c0.1,0.1,0.3,0,0.3-0.1c1.3-2.4,2.5-4.8,3.8-7.2c0.1-0.1,0-0.3-0.1-0.3C198.2,280.7,198,280.8,198,280.9
		L198,280.9z M192.3,291.7c-1.3,2.4-2.6,4.7-4,7.1c-0.1,0.1,0,0.3,0.1,0.3c0.1,0.1,0.3,0,0.3-0.1c1.4-2.4,2.7-4.7,4-7.1
		c0.1-0.1,0-0.3-0.1-0.3C192.5,291.5,192.3,291.6,192.3,291.7z"/>
	<path clip-path="url(#SVGID_36_)" fill="#BCBEBE" d="M186.2,302.4c-0.7,1.1-1.4,2.3-2,3.4c-0.1,0.1,0,0.3,0.1,0.3
		c0.1,0.1,0.3,0,0.3-0.1c0.7-1.1,1.4-2.3,2-3.4c0.1-0.1,0-0.3-0.1-0.3S186.3,302.3,186.2,302.4"/>
</g>
<polygon fill="#BCBEBE" points="183.6,304.4 182.1,309.8 186.1,305.8 "/>
<g>
	<defs>
		<rect id="SVGID_37_" width="303.4" height="369.3"/>
	</defs>
	<clipPath id="SVGID_38_">
		<use xlink:href="#SVGID_37_"  overflow="visible"/>
	</clipPath>
	<path clip-path="url(#SVGID_38_)" fill="#BCBEBE" d="M11.4,80.1c0,0.2,0,0.4,0,0.6c0,1.1,0,2.2,0,3.4c0,0.1,0.1,0.2,0.3,0.2
		s0.2-0.1,0.2-0.3c0-1.1,0-2.2,0-3.4c0-0.2,0-0.4,0-0.6c0-0.1-0.1-0.2-0.2-0.3C11.5,79.8,11.4,79.9,11.4,80.1"/>
	<path clip-path="url(#SVGID_38_)" fill="#BCBEBE" d="M11.4,88c0,2.7,0.1,5.3,0.2,7.9c0,0.1,0.1,0.2,0.3,0.2c0.1,0,0.2-0.1,0.2-0.3
		C12,93.3,12,90.7,11.9,88c0-0.1-0.1-0.2-0.3-0.2C11.5,87.8,11.4,87.9,11.4,88 M11.8,99.9c0.1,2.7,0.2,5.3,0.4,7.9
		c0,0.1,0.1,0.2,0.3,0.2c0.1,0,0.2-0.1,0.2-0.3c-0.2-2.6-0.3-5.2-0.4-7.9c0-0.1-0.1-0.2-0.3-0.2C11.9,99.6,11.8,99.7,11.8,99.9
		 M12.4,111.7c0.2,2.7,0.4,5.3,0.6,7.9c0,0.1,0.1,0.2,0.3,0.2c0.1,0,0.2-0.1,0.2-0.3c-0.2-2.6-0.4-5.2-0.6-7.9
		c0-0.1-0.1-0.2-0.3-0.2C12.5,111.5,12.4,111.6,12.4,111.7L12.4,111.7z M13.4,123.6c0.3,2.6,0.5,5.3,0.9,7.9c0,0.1,0.1,0.2,0.3,0.2
		c0.1,0,0.2-0.1,0.2-0.3c-0.3-2.6-0.6-5.2-0.9-7.9c0-0.1-0.1-0.2-0.3-0.2C13.5,123.3,13.4,123.4,13.4,123.6 M14.8,135.4
		c0.3,2.6,0.7,5.2,1.1,7.8c0,0.1,0.1,0.2,0.3,0.2c0.1,0,0.2-0.1,0.2-0.3c-0.4-2.6-0.8-5.2-1.1-7.8c0-0.1-0.1-0.2-0.3-0.2
		C14.8,135.1,14.7,135.2,14.8,135.4 M16.5,147.1c0.4,2.6,0.9,5.2,1.4,7.8c0,0.1,0.2,0.2,0.3,0.2c0.1,0,0.2-0.2,0.2-0.3
		c-0.5-2.6-0.9-5.2-1.4-7.8c0-0.1-0.2-0.2-0.3-0.2C16.5,146.8,16.5,147,16.5,147.1 M18.6,158.8c0.5,2.6,1.1,5.2,1.7,7.7
		c0,0.1,0.2,0.2,0.3,0.2c0.1,0,0.2-0.2,0.2-0.3c-0.6-2.6-1.1-5.1-1.7-7.7c0-0.1-0.2-0.2-0.3-0.2C18.7,158.5,18.6,158.6,18.6,158.8
		 M21.2,170.4c0.6,2.6,1.3,5.1,2,7.7c0,0.1,0.2,0.2,0.3,0.2c0.1,0,0.2-0.2,0.2-0.3c-0.7-2.5-1.3-5.1-2-7.7c0-0.1-0.2-0.2-0.3-0.2
		C21.2,170.1,21.1,170.2,21.2,170.4 M24.2,181.8c0.7,2.6,1.5,5.1,2.3,7.6c0,0.1,0.2,0.2,0.3,0.2c0.1,0,0.2-0.2,0.2-0.3
		c-0.8-2.5-1.5-5-2.3-7.6c0-0.1-0.2-0.2-0.3-0.2C24.2,181.6,24.1,181.7,24.2,181.8 M27.7,193.2c0.8,2.5,1.7,5,2.6,7.5
		c0,0.1,0.2,0.2,0.3,0.1c0.1,0,0.2-0.2,0.2-0.3c-0.9-2.5-1.8-4.9-2.6-7.5c0-0.1-0.2-0.2-0.3-0.2C27.7,192.9,27.6,193.1,27.7,193.2
		 M31.6,204.4c0.9,2.5,1.9,4.9,2.9,7.4c0.1,0.1,0.2,0.2,0.3,0.1c0.1-0.1,0.2-0.2,0.1-0.3c-1-2.4-2-4.9-2.9-7.3
		c-0.1-0.1-0.2-0.2-0.3-0.1C31.6,204.1,31.6,204.3,31.6,204.4 M36.1,215.4c1.1,2.4,2.1,4.8,3.3,7.2c0.1,0.1,0.2,0.2,0.3,0.1
		c0.1-0.1,0.2-0.2,0.1-0.3c-1.1-2.4-2.2-4.8-3.3-7.2c-0.1-0.1-0.2-0.2-0.3-0.1C36.1,215.1,36,215.3,36.1,215.4z M41.1,226.1
		c1.2,2.4,2.4,4.7,3.6,7c0.1,0.1,0.2,0.2,0.3,0.1c0.1-0.1,0.2-0.2,0.1-0.3c-1.2-2.3-2.4-4.7-3.6-7c-0.1-0.1-0.2-0.2-0.3-0.1
		C41.1,225.9,41,226,41.1,226.1 M46.6,236.7c1.3,2.3,2.6,4.6,4,6.8c0.1,0.1,0.2,0.2,0.3,0.1c0.1-0.1,0.2-0.2,0.1-0.3
		c-1.4-2.2-2.7-4.5-4-6.8c-0.1-0.1-0.2-0.2-0.3-0.1C46.6,236.4,46.6,236.5,46.6,236.7 M52.7,246.9c1.4,2.2,2.9,4.5,4.3,6.6
		c0.1,0.1,0.2,0.1,0.3,0.1c0.1-0.1,0.1-0.2,0.1-0.3c-1.5-2.2-2.9-4.4-4.3-6.6c-0.1-0.1-0.2-0.2-0.3-0.1
		C52.7,246.6,52.6,246.8,52.7,246.9 M59.3,256.8c1.5,2.2,3.1,4.3,4.7,6.4c0.1,0.1,0.2,0.1,0.4,0c0.1-0.1,0.1-0.2,0-0.4
		c-1.6-2.1-3.2-4.2-4.7-6.4c-0.1-0.1-0.2-0.1-0.3-0.1C59.2,256.5,59.2,256.6,59.3,256.8 M66.4,266.3c1.6,2.1,3.3,4.1,5,6.1
		c0.1,0.1,0.2,0.1,0.4,0c0.1-0.1,0.1-0.2,0-0.4c-1.7-2-3.4-4-5-6.1c-0.1-0.1-0.2-0.1-0.4,0C66.4,266,66.3,266.2,66.4,266.3
		 M74,275.4c1.7,2,3.5,3.9,5.3,5.8c0.1,0.1,0.3,0.1,0.4,0c0.1-0.1,0.1-0.3,0-0.4c-1.8-1.9-3.6-3.8-5.3-5.8c-0.1-0.1-0.2-0.1-0.4,0
		C74,275.1,74,275.3,74,275.4 M82.1,284c1.8,1.9,3.7,3.7,5.7,5.5c0.1,0.1,0.3,0.1,0.4,0c0.1-0.1,0.1-0.3,0-0.4
		c-1.9-1.8-3.8-3.6-5.6-5.5c-0.1-0.1-0.3-0.1-0.4,0C82.1,283.8,82.1,283.9,82.1,284 M90.7,292.2c1.9,1.8,3.9,3.5,5.9,5.2
		c0.1,0.1,0.3,0.1,0.4,0c0.1-0.1,0.1-0.3,0-0.4c-2-1.7-4-3.4-5.9-5.2c-0.1-0.1-0.3-0.1-0.4,0C90.6,292,90.6,292.1,90.7,292.2
		 M99.7,300c2,1.7,4.1,3.3,6.2,4.9c0.1,0.1,0.3,0.1,0.4,0c0.1-0.1,0.1-0.3,0-0.4c-2.1-1.6-4.2-3.2-6.2-4.9c-0.1-0.1-0.3-0.1-0.4,0
		C99.6,299.7,99.6,299.9,99.7,300 M109.1,307.2c2.1,1.6,4.3,3.1,6.5,4.6c0.1,0.1,0.3,0.1,0.3-0.1c0.1-0.1,0-0.3-0.1-0.3
		c-2.2-1.5-4.3-3-6.4-4.6c-0.1-0.1-0.3-0.1-0.3,0.1C108.9,307,109,307.2,109.1,307.2z"/>
	<path clip-path="url(#SVGID_38_)" fill="#BCBEBE" d="M118.9,314.1c1.1,0.7,2.2,1.5,3.4,2.2c0.1,0.1,0.3,0,0.3-0.1
		c0.1-0.1,0-0.3-0.1-0.3c-1.1-0.7-2.2-1.4-3.4-2.2c-0.1-0.1-0.3,0-0.3,0.1C118.7,313.8,118.8,314,118.9,314.1"/>
</g>
<polygon fill="#BCBEBE" points="120.8,316.7 126.1,318.4 122.3,314.3 "/>
<g>
	<defs>
		<rect id="SVGID_39_" width="303.4" height="369.3"/>
	</defs>
	<clipPath id="SVGID_40_">
		<use xlink:href="#SVGID_39_"  overflow="visible"/>
	</clipPath>
	<path clip-path="url(#SVGID_40_)" fill="#BCBEBE" d="M75.6,71.7c-0.2,1.3-0.4,2.6-0.6,4c0,0.1,0.1,0.3,0.2,0.3
		c0.1,0,0.3-0.1,0.3-0.2c0.2-1.3,0.4-2.6,0.6-4c0-0.1-0.1-0.3-0.2-0.3C75.8,71.5,75.7,71.6,75.6,71.7"/>
	<path clip-path="url(#SVGID_40_)" fill="#BCBEBE" d="M74.5,79.7c-0.4,2.7-0.7,5.3-1,8c0,0.1,0.1,0.3,0.2,0.3c0.1,0,0.3-0.1,0.3-0.2
		c0.3-2.6,0.6-5.3,1-8c0-0.1-0.1-0.3-0.2-0.3C74.6,79.4,74.5,79.5,74.5,79.7 M73,91.7c-0.3,2.7-0.5,5.4-0.8,8c0,0.1,0.1,0.3,0.2,0.3
		c0.1,0,0.3-0.1,0.3-0.2c0.2-2.7,0.5-5.3,0.8-8c0-0.1-0.1-0.3-0.2-0.3C73.2,91.4,73.1,91.5,73,91.7 M72,103.7
		c-0.2,2.7-0.4,5.4-0.5,8c0,0.1,0.1,0.3,0.2,0.3s0.3-0.1,0.3-0.2c0.1-2.7,0.3-5.3,0.5-8c0-0.1-0.1-0.3-0.2-0.3
		C72.1,103.4,72,103.5,72,103.7 M71.3,115.7c-0.1,2.7-0.2,5.4-0.2,8c0,0.1,0.1,0.3,0.2,0.3c0.1,0,0.3-0.1,0.3-0.2
		c0-2.7,0.1-5.3,0.2-8c0-0.1-0.1-0.3-0.2-0.3C71.4,115.5,71.3,115.6,71.3,115.7 M71,127.8c0,0.6,0,1.2,0,1.8c0,2.1,0,4.2,0.1,6.2
		c0,0.1,0.1,0.2,0.3,0.2c0.1,0,0.2-0.1,0.2-0.3c0-2.1-0.1-4.2-0.1-6.2c0-0.6,0-1.2,0-1.8c0-0.1-0.1-0.3-0.2-0.3
		C71.1,127.5,71,127.7,71,127.8 M71.2,139.9c0.1,2.7,0.2,5.4,0.3,8c0,0.1,0.1,0.2,0.3,0.2c0.1,0,0.2-0.1,0.2-0.3
		c-0.1-2.7-0.3-5.3-0.3-8c0-0.1-0.1-0.2-0.3-0.2C71.3,139.6,71.2,139.7,71.2,139.9 M71.8,151.9c0.2,2.7,0.4,5.4,0.6,8
		c0,0.1,0.1,0.2,0.3,0.2c0.1,0,0.2-0.1,0.2-0.3c-0.2-2.7-0.5-5.3-0.6-8c0-0.1-0.1-0.2-0.3-0.2C71.9,151.7,71.8,151.8,71.8,151.9z
		 M72.8,164c0.3,2.7,0.6,5.3,1,8c0,0.1,0.1,0.2,0.3,0.2c0.1,0,0.2-0.1,0.2-0.3c-0.3-2.7-0.7-5.3-1-8c0-0.1-0.1-0.2-0.3-0.2
		C72.9,163.7,72.8,163.8,72.8,164z M74.3,175.9c0.4,2.7,0.8,5.3,1.3,8c0,0.1,0.2,0.2,0.3,0.2c0.1,0,0.2-0.2,0.2-0.3
		c-0.5-2.6-0.9-5.3-1.3-7.9c0-0.1-0.1-0.2-0.3-0.2S74.3,175.8,74.3,175.9z M76.3,187.9c0.5,2.6,1,5.3,1.6,7.9c0,0.1,0.2,0.2,0.3,0.2
		c0.1,0,0.2-0.2,0.2-0.3c-0.6-2.6-1.1-5.2-1.6-7.9c0-0.1-0.2-0.2-0.3-0.2C76.4,187.6,76.3,187.7,76.3,187.9 M78.8,199.7
		c0.6,2.6,1.2,5.2,1.9,7.8c0,0.1,0.2,0.2,0.3,0.2c0.1,0,0.2-0.2,0.2-0.3c-0.7-2.6-1.3-5.2-1.9-7.8c0-0.1-0.2-0.2-0.3-0.2
		C78.8,199.4,78.7,199.6,78.8,199.7 M81.7,211.4c0.7,2.6,1.5,5.2,2.2,7.7c0,0.1,0.2,0.2,0.3,0.2c0.1,0,0.2-0.2,0.2-0.3
		c-0.8-2.6-1.5-5.1-2.2-7.7c0-0.1-0.2-0.2-0.3-0.2C81.7,211.1,81.7,211.3,81.7,211.4 M85.1,223c0.8,2.6,1.7,5.1,2.6,7.6
		c0,0.1,0.2,0.2,0.3,0.2c0.1,0,0.2-0.2,0.2-0.3c-0.9-2.5-1.7-5.1-2.5-7.6c0-0.1-0.2-0.2-0.3-0.2C85.2,222.7,85.1,222.8,85.1,223
		 M89,234.4c0.9,2.5,1.9,5,2.9,7.5c0.1,0.1,0.2,0.2,0.3,0.1c0.1-0.1,0.2-0.2,0.1-0.3c-1-2.5-1.9-5-2.9-7.5c0-0.1-0.2-0.2-0.3-0.1
		C89.1,234.1,89,234.3,89,234.4 M93.4,245.6c1,2.5,2.1,4.9,3.2,7.4c0.1,0.1,0.2,0.2,0.3,0.1s0.2-0.2,0.1-0.3
		c-1.1-2.4-2.2-4.9-3.2-7.4c-0.1-0.1-0.2-0.2-0.3-0.1C93.4,245.3,93.4,245.5,93.4,245.6 M98.3,256.7c1.1,2.4,2.3,4.8,3.5,7.2
		c0.1,0.1,0.2,0.2,0.3,0.1c0.1-0.1,0.2-0.2,0.1-0.3c-1.2-2.4-2.3-4.8-3.5-7.2c-0.1-0.1-0.2-0.2-0.3-0.1
		C98.3,256.4,98.2,256.5,98.3,256.7 M103.6,267.5c1.2,2.4,2.5,4.7,3.8,7.1c0.1,0.1,0.2,0.2,0.3,0.1c0.1-0.1,0.2-0.2,0.1-0.3
		c-1.3-2.3-2.5-4.7-3.8-7.1c-0.1-0.1-0.2-0.2-0.3-0.1C103.5,267.2,103.5,267.4,103.6,267.5 M109.3,278.1c1.3,2.3,2.7,4.6,4.1,6.9
		c0.1,0.1,0.2,0.2,0.3,0.1c0.1-0.1,0.2-0.2,0.1-0.3c-1.4-2.3-2.7-4.6-4-6.9c-0.1-0.1-0.2-0.2-0.3-0.1
		C109.3,277.8,109.2,278,109.3,278.1 M115.4,288.4c1.4,2.3,2.8,4.5,4.3,6.8c0.1,0.1,0.2,0.1,0.3,0.1c0.1-0.1,0.1-0.2,0.1-0.3
		c-1.5-2.2-2.9-4.5-4.3-6.8c-0.1-0.1-0.2-0.2-0.3-0.1C115.4,288.2,115.3,288.3,115.4,288.4 M122,298.6c1.5,2.2,3,4.4,4.6,6.6
		c0.1,0.1,0.2,0.1,0.3,0.1c0.1-0.1,0.1-0.2,0.1-0.3c-1.6-2.2-3.1-4.4-4.6-6.6c-0.1-0.1-0.2-0.1-0.3-0.1
		C121.9,298.3,121.9,298.5,122,298.6"/>
	<path clip-path="url(#SVGID_40_)" fill="#BCBEBE" d="M128.9,308.5c0.8,1.1,1.6,2.1,2.4,3.2c0.1,0.1,0.2,0.1,0.4,0s0.1-0.2,0.1-0.4
		c-0.8-1.1-1.6-2.1-2.4-3.2c-0.1-0.1-0.2-0.1-0.3-0.1C128.9,308.2,128.8,308.4,128.9,308.5z"/>
</g>
<polygon fill="#BCBEBE" points="129.8,311.5 134.2,315.1 132.1,309.8 "/>
<g>
	<defs>
		<rect id="SVGID_41_" width="303.4" height="369.3"/>
	</defs>
	<clipPath id="SVGID_42_">
		<use xlink:href="#SVGID_41_"  overflow="visible"/>
	</clipPath>
	<path clip-path="url(#SVGID_42_)" fill="#BCBEBE" d="M256.1,52.6c0.7,1.1,1.4,2.3,2,3.4c0.1,0.1,0.2,0.2,0.3,0.1
		c0.1-0.1,0.2-0.2,0.1-0.3c-0.7-1.1-1.3-2.3-2-3.4c-0.1-0.1-0.2-0.2-0.3-0.1C256.1,52.3,256.1,52.5,256.1,52.6"/>
	<path clip-path="url(#SVGID_42_)" fill="#BCBEBE" d="M260.1,59.5c1.3,2.3,2.5,4.7,3.7,7.1c0.1,0.1,0.2,0.2,0.3,0.1
		c0.1-0.1,0.2-0.2,0.1-0.3c-1.2-2.4-2.4-4.7-3.7-7.1c-0.1-0.1-0.2-0.2-0.3-0.1C260.1,59.2,260.1,59.4,260.1,59.5z M265.5,70.2
		c1.1,2.4,2.1,4.9,3.1,7.3c0.1,0.1,0.2,0.2,0.3,0.1c0.1-0.1,0.2-0.2,0.1-0.3c-1-2.5-2-4.9-3.1-7.3c-0.1-0.1-0.2-0.2-0.3-0.1
		C265.5,69.9,265.4,70,265.5,70.2 M270,81.2c0.9,2.5,1.8,5,2.5,7.5c0,0.1,0.2,0.2,0.3,0.2c0.1,0,0.2-0.2,0.2-0.3
		c-0.8-2.5-1.6-5.1-2.5-7.6c0-0.1-0.2-0.2-0.3-0.1C270,80.9,270,81.1,270,81.2 M273.6,92.5c0.7,2.6,1.3,5.1,1.9,7.7
		c0,0.1,0.2,0.2,0.3,0.2c0.1,0,0.2-0.2,0.2-0.3c-0.6-2.6-1.2-5.2-1.9-7.7c0-0.1-0.2-0.2-0.3-0.2C273.7,92.3,273.6,92.4,273.6,92.5z
		 M276.3,104.2c0.5,2.6,0.9,5.2,1.2,7.9c0,0.1,0.1,0.2,0.3,0.2c0.1,0,0.2-0.1,0.2-0.3c-0.3-2.6-0.7-5.3-1.2-7.9
		c0-0.1-0.2-0.2-0.3-0.2C276.4,103.9,276.3,104,276.3,104.2 M278,116c0.3,2.6,0.4,5.3,0.5,7.9c0,0.1,0.1,0.2,0.3,0.2
		c0.1,0,0.2-0.1,0.2-0.3c-0.1-2.7-0.3-5.3-0.6-8c0-0.1-0.1-0.2-0.3-0.2C278.1,115.7,278,115.8,278,116 M278.6,127.8
		c0,0.6,0,1.2,0,1.8c0,2,0,4.1-0.1,6.1c0,0.1,0.1,0.3,0.2,0.3s0.3-0.1,0.3-0.2c0.1-2,0.1-4.1,0.1-6.1c0-0.6,0-1.2,0-1.8
		c0-0.1-0.1-0.2-0.3-0.2C278.7,127.6,278.6,127.7,278.6,127.8z M278.3,139.8c-0.2,2.6-0.4,5.3-0.8,7.9c0,0.1,0.1,0.3,0.2,0.3
		s0.3-0.1,0.3-0.2c0.3-2.7,0.6-5.3,0.8-7.9c0-0.1-0.1-0.3-0.2-0.3C278.4,139.5,278.3,139.6,278.3,139.8z M277,151.6
		c-0.4,2.6-0.8,5.2-1.4,7.8c0,0.1,0.1,0.3,0.2,0.3c0.1,0,0.3-0.1,0.3-0.2c0.5-2.6,1-5.2,1.4-7.9c0-0.1-0.1-0.3-0.2-0.3
		C277.1,151.4,277,151.5,277,151.6 M274.8,163.3c-0.6,2.6-1.2,5.1-1.9,7.7c0,0.1,0,0.3,0.2,0.3c0.1,0,0.3,0,0.3-0.2
		c0.7-2.6,1.3-5.2,1.9-7.7c0-0.1-0.1-0.3-0.2-0.3C275,163.1,274.8,163.2,274.8,163.3 M271.8,174.8c-0.7,2.5-1.6,5-2.4,7.6
		c0,0.1,0,0.3,0.2,0.3c0.1,0,0.3,0,0.3-0.2c0.9-2.5,1.7-5.1,2.4-7.6c0-0.1,0-0.3-0.2-0.3C272,174.6,271.8,174.7,271.8,174.8
		 M268.1,186.2c-0.9,2.5-1.9,4.9-2.9,7.4c-0.1,0.1,0,0.3,0.1,0.3c0.1,0.1,0.3,0,0.3-0.1c1-2.5,2-5,2.9-7.4c0-0.1,0-0.3-0.1-0.3
		C268.3,186,268.1,186,268.1,186.2 M263.7,197.2c-1,2.4-2.1,4.8-3.3,7.2c-0.1,0.1,0,0.3,0.1,0.3s0.3,0,0.3-0.1
		c1.1-2.4,2.2-4.8,3.3-7.3c0.1-0.1,0-0.3-0.1-0.3C263.9,197.1,263.7,197.1,263.7,197.2 M258.7,208.1c-1.2,2.4-2.4,4.7-3.6,7.1
		c-0.1,0.1,0,0.3,0.1,0.3c0.1,0.1,0.3,0,0.3-0.1c1.3-2.4,2.5-4.7,3.6-7.1c0.1-0.1,0-0.3-0.1-0.3C258.9,207.9,258.7,208,258.7,208.1
		 M253.1,218.7c-1.3,2.3-2.6,4.6-3.9,6.9c-0.1,0.1,0,0.3,0.1,0.3c0.1,0.1,0.3,0,0.3-0.1c1.4-2.3,2.7-4.6,3.9-6.9
		c0.1-0.1,0-0.3-0.1-0.3C253.4,218.5,253.2,218.5,253.1,218.7 M247.2,229c-1.4,2.2-2.8,4.5-4.2,6.7c-0.1,0.1,0,0.3,0.1,0.3
		c0.1,0.1,0.3,0,0.3-0.1c1.5-2.3,2.9-4.5,4.2-6.8c0.1-0.1,0-0.3-0.1-0.3C247.4,228.8,247.2,228.9,247.2,229L247.2,229z M240.8,239.1
		c-1.4,2.2-2.9,4.4-4.5,6.6c-0.1,0.1-0.1,0.3,0.1,0.3c0.1,0.1,0.3,0.1,0.3-0.1c1.5-2.2,3-4.4,4.5-6.6c0.1-0.1,0-0.3-0.1-0.3
		C241,238.9,240.9,238.9,240.8,239.1 M234,248.9c-1.5,2.1-3.1,4.3-4.7,6.4c-0.1,0.1-0.1,0.3,0.1,0.3c0.1,0.1,0.3,0.1,0.3-0.1
		c1.6-2.2,3.2-4.3,4.7-6.4c0.1-0.1,0.1-0.3-0.1-0.3C234.3,248.8,234.1,248.8,234,248.9z M227,258.5c-1.6,2.1-3.2,4.2-4.9,6.3
		c-0.1,0.1-0.1,0.3,0,0.4c0.1,0.1,0.3,0.1,0.4,0c1.7-2.1,3.3-4.2,4.9-6.3c0.1-0.1,0.1-0.3,0-0.3C227.2,258.4,227.1,258.4,227,258.5
		L227,258.5z M219.6,267.9c-1.6,2-3.3,4.1-5,6.2c-0.1,0.1-0.1,0.3,0,0.4c0.1,0.1,0.3,0.1,0.4,0c1.7-2.1,3.4-4.1,5.1-6.2
		c0.1-0.1,0.1-0.3,0-0.4C219.9,267.8,219.7,267.8,219.6,267.9z M212,277.1c-1.7,2-3.4,4-5.2,6c-0.1,0.1-0.1,0.3,0,0.4
		c0.1,0.1,0.3,0.1,0.4,0c1.8-2,3.5-4,5.2-6c0.1-0.1,0.1-0.3,0-0.4C212.3,277,212.1,277,212,277.1 M204.2,286.1
		c-1.8,2-3.5,3.9-5.3,5.9c-0.1,0.1-0.1,0.3,0,0.4c0.1,0.1,0.3,0.1,0.4,0c1.8-2,3.6-3.9,5.3-5.9c0.1-0.1,0.1-0.3,0-0.4
		C204.4,286,204.3,286,204.2,286.1 M196.1,294.9c-1.8,1.9-3.6,3.8-5.5,5.8c-0.1,0.1-0.1,0.3,0,0.4c0.1,0.1,0.3,0.1,0.4,0
		c1.9-1.9,3.7-3.9,5.5-5.8c0.1-0.1,0.1-0.3,0-0.4C196.4,294.8,196.2,294.8,196.1,294.9"/>
	<path clip-path="url(#SVGID_42_)" fill="#BCBEBE" d="M187.8,303.6c-0.9,1-1.9,1.9-2.8,2.9c-0.1,0.1-0.1,0.3,0,0.4
		c0.1,0.1,0.3,0.1,0.4,0c0.9-1,1.9-1.9,2.8-2.9c0.1-0.1,0.1-0.3,0-0.4C188.1,303.5,187.9,303.5,187.8,303.6"/>
</g>
<polygon fill="#BCBEBE" points="184.8,304.8 182.1,309.8 186.9,306.9 "/>
<g>
	<defs>
		<rect id="SVGID_43_" width="303.4" height="369.3"/>
	</defs>
	<clipPath id="SVGID_44_">
		<use xlink:href="#SVGID_43_"  overflow="visible"/>
	</clipPath>
	<path clip-path="url(#SVGID_44_)" fill="#F90008" d="M47.2,70c0.9,1.6,2.9,2.2,4.5,1.3c1.6-0.9,2.2-2.9,1.3-4.5
		c-0.9-1.6-2.9-2.2-4.5-1.3C46.9,66.4,46.3,68.4,47.2,70"/>
	<path clip-path="url(#SVGID_44_)" fill="#F90008" d="M116.8,39.1c0.1,1.8,1.7,3.2,3.5,3.1c1.8-0.1,3.2-1.7,3.1-3.5
		c-0.1-1.8-1.7-3.2-3.5-3.1C118.1,35.7,116.7,37.3,116.8,39.1"/>
	<path clip-path="url(#SVGID_44_)" fill="#F90008" d="M155,36c-0.3,1.8,0.9,3.5,2.7,3.8s3.5-0.9,3.8-2.7c0.3-1.8-0.9-3.5-2.7-3.8
		S155.4,34.2,155,36"/>
	<path clip-path="url(#SVGID_44_)" fill="#F90008" d="M228.8,55.2c-1.1,1.5-0.7,3.6,0.8,4.6c1.5,1.1,3.6,0.7,4.6-0.8
		c1.1-1.5,0.7-3.6-0.8-4.6C231.9,53.4,229.8,53.7,228.8,55.2"/>
	<path clip-path="url(#SVGID_44_)" fill="#F90008" d="M45.4,31c0.7,1.7,2.6,2.5,4.3,1.8c1.7-0.7,2.5-2.6,1.8-4.3
		c-0.7-1.7-2.6-2.5-4.3-1.8C45.5,27.4,44.7,29.3,45.4,31"/>
	<path clip-path="url(#SVGID_44_)" fill="#F90008" d="M177.9,4.3c-0.5,1.8,0.5,3.6,2.3,4.1c1.8,0.5,3.6-0.5,4.1-2.3
		c0.5-1.8-0.5-3.6-2.3-4.1C180.3,1.5,178.4,2.5,177.9,4.3"/>
	<path clip-path="url(#SVGID_44_)" fill="#F90008" d="M298.2,66.1c-1.5,1.1-1.9,3.1-0.8,4.6c1.1,1.5,3.1,1.9,4.6,0.8
		c1.5-1.1,1.9-3.1,0.8-4.6C301.8,65.4,299.7,65,298.2,66.1"/>
	<path clip-path="url(#SVGID_44_)" fill="#F90008" d="M8.8,58.6c1.1,1.5,3.1,1.9,4.6,0.8c1.5-1.1,1.9-3.1,0.8-4.6
		c-1.1-1.5-3.1-1.9-4.6-0.8C8.1,55.1,7.7,57.2,8.8,58.6"/>
	<path clip-path="url(#SVGID_44_)" fill="#F90008" d="M263.1,36.6c-1.2,1.4-1.1,3.5,0.3,4.7c1.4,1.2,3.5,1.1,4.7-0.3
		c1.2-1.4,1.1-3.5-0.3-4.7C266.4,35.1,264.3,35.2,263.1,36.6"/>
	<path clip-path="url(#SVGID_44_)" fill="#F90008" d="M260.6,76.6c-1.4,1.2-1.5,3.3-0.3,4.7c1.2,1.4,3.3,1.5,4.7,0.3
		c1.4-1.2,1.5-3.3,0.3-4.7C264,75.5,261.9,75.4,260.6,76.6"/>
	<path clip-path="url(#SVGID_44_)" fill="#F90008" d="M132.1,3.1c-0.1,1.8,1.3,3.4,3.1,3.5c1.8,0.1,3.4-1.3,3.5-3.1
		c0.1-1.8-1.3-3.4-3.1-3.5C133.8-0.1,132.2,1.3,132.1,3.1"/>
	<path clip-path="url(#SVGID_44_)" fill="#F90008" d="M80.3,50.6c0.5,1.8,2.3,2.8,4.1,2.3c1.8-0.5,2.8-2.3,2.3-4.1
		c-0.5-1.8-2.3-2.8-4.1-2.3C80.8,47,79.8,48.9,80.3,50.6"/>
	<path clip-path="url(#SVGID_44_)" fill="#F90008" d="M193,41.4c-0.7,1.7,0.1,3.6,1.8,4.3c1.7,0.7,3.6-0.1,4.3-1.8
		c0.7-1.7-0.1-3.6-1.8-4.3C195.6,38.9,193.7,39.7,193,41.4"/>
	<path clip-path="url(#SVGID_44_)" fill="#F90008" d="M222.3,15.6c-0.9,1.6-0.3,3.6,1.3,4.5c1.6,0.9,3.6,0.3,4.5-1.3
		c0.9-1.6,0.3-3.6-1.3-4.5C225.2,13.5,223.2,14,222.3,15.6"/>
	<path clip-path="url(#SVGID_44_)" fill="#F90008" d="M87.2,12.2c0.3,1.8,2,3,3.8,2.7c1.8-0.3,3-2,2.7-3.8s-2-3-3.8-2.7
		C88.1,8.7,86.9,10.4,87.2,12.2"/>
	<path clip-path="url(#SVGID_44_)" fill="#F90008" d="M165.4,315.1c-0.9,5.4,2.7,10.5,8,11.4c5.4,0.9,10.5-2.7,11.4-8
		c0.9-5.4-2.7-10.5-8-11.4C171.4,306.1,166.3,309.7,165.4,315.1"/>
</g>
<text transform="matrix(1 0 0 1 157.4951 38.1988)" fill="#FFFFFF" font-family="'ApexNew-Medium'" font-size="5">1</text>
<text transform="matrix(0.9749 -0.2226 0.2226 0.9749 119.7256 40.7174)" fill="#FFFFFF" font-family="'ApexNew-Medium'" font-size="5">1</text>
<text transform="matrix(0.8467 -0.5321 0.5321 0.8467 48.6199 31.5743)" fill="#FFFFFF" font-family="'ApexNew-Medium'" font-size="5">1</text>
<text transform="matrix(0.9937 0.1119 -0.1119 0.9937 180.1108 6.7828)" fill="#FFFFFF" font-family="'ApexNew-Medium'" font-size="5">1</text>
<text transform="matrix(0.9009 0.434 -0.434 0.9009 230.0005 58.2651)" fill="#FFFFFF" font-family="'ApexNew-Medium'" font-size="5">1</text>
<text transform="matrix(0.7817 0.6236 -0.6236 0.7817 261.1004 79.8435)" fill="#FFFFFF" font-family="'ApexNew-Medium'" font-size="5">1</text>
<g>
	<defs>
		<rect id="SVGID_45_" width="303.4" height="369.3"/>
	</defs>
	<clipPath id="SVGID_46_">
		<use xlink:href="#SVGID_45_"  overflow="visible"/>
	</clipPath>
	<g clip-path="url(#SVGID_46_)">
		
			<text transform="matrix(0.707 0.7072 -0.7072 0.707 298.3692 69.3827)" fill="#FFFFFF" font-family="'ApexNew-Medium'" font-size="5">1</text>
	</g>
</g>
<text transform="matrix(0.8467 0.532 -0.532 0.8467 264.0066 39.7729)" fill="#FFFFFF" font-family="'ApexNew-Medium'" font-size="5">1</text>
<text transform="matrix(0.7071 -0.7071 0.7071 0.7071 12.1062 58.4861)" fill="#FFFFFF" font-family="'ApexNew-Medium'" font-size="5">1</text>
<g>
	<defs>
		<rect id="SVGID_47_" width="303.4" height="369.3"/>
	</defs>
	<clipPath id="SVGID_48_">
		<use xlink:href="#SVGID_47_"  overflow="visible"/>
	</clipPath>
	<g clip-path="url(#SVGID_48_)">
		
			<text transform="matrix(0.9937 -0.1119 0.1119 0.9937 134.7822 5.0573)" fill="#FFFFFF" font-family="'ApexNew-Medium'" font-size="5">1</text>
	</g>
</g>
<text transform="matrix(0.901 -0.4339 0.4339 0.901 83.463 51.5786)" fill="#FFFFFF" font-family="'ApexNew-Medium'" font-size="5">1</text>
<text transform="matrix(0.9749 0.2226 -0.2226 0.9749 194.8775 44.147)" fill="#FFFFFF" font-family="'ApexNew-Medium'" font-size="5">1</text>
<text transform="matrix(0.7818 -0.6235 0.6235 0.7818 50.5263 70.237)" fill="#FFFFFF" font-family="'ApexNew-Medium'" font-size="5">1</text>
<text transform="matrix(0.9439 0.3302 -0.3302 0.9439 223.9169 18.5513)" fill="#FFFFFF" font-family="'ApexNew-Medium'" font-size="5">1</text>
<text transform="matrix(0.9439 -0.3303 0.3303 0.9439 90.2076 13.4626)" fill="#FFFFFF" font-family="'ApexNew-Medium'" font-size="5">1</text>
<text transform="matrix(1 0 0 1 170.2461 321.6578)" fill="#FFFFFF" font-family="'ApexNew-Medium'" font-size="16">4</text>
</svg>
