<?xml version="1.0" encoding="utf-8"?>
<!-- Generator: Adobe Illustrator 18.0.0, SVG Export Plug-In . SVG Version: 6.00 Build 0)  -->
<!DOCTYPE svg PUBLIC "-//W3C//DTD SVG 1.1//EN" "http://www.w3.org/Graphics/SVG/1.1/DTD/svg11.dtd">
<svg version="1.1" xmlns="http://www.w3.org/2000/svg" xmlns:xlink="http://www.w3.org/1999/xlink" x="0px" y="0px"
	 viewBox="0 0 840 300" enable-background="new 0 0 840 300" xml:space="preserve">
<g id="Lines">
	<line fill="none" stroke="#4D4D4D" stroke-width="3" stroke-linejoin="round" x1="472.5" y1="175" x2="420" y2="175"/>
	<line fill="none" stroke="#666666" stroke-width="3" stroke-linejoin="round" x1="315" y1="250" x2="290" y2="225"/>
	<line fill="none" stroke="#4D4D4D" stroke-width="3" stroke-linejoin="round" x1="630" y1="125" x2="525" y2="125"/>
	<line fill="none" stroke="#333333" stroke-width="3" stroke-linejoin="round" x1="367.5" y1="150" x2="315" y2="150"/>
	<line fill="none" stroke="#333333" stroke-width="3" stroke-linejoin="round" x1="315" y1="75" x2="157.5" y2="75"/>
	<line fill="none" stroke="#333333" stroke-width="3" stroke-linejoin="round" x1="315" y1="250" x2="210" y2="250"/>
	<polyline fill="none" stroke="#666666" stroke-width="3" stroke-linejoin="round" points="735,200 577.5,200 552.5,225 290,225 	
		"/>
	<line fill="none" stroke="#808080" stroke-width="3" stroke-linejoin="round" x1="840" y1="200" x2="735" y2="200"/>
	<line fill="none" stroke="#333333" stroke-width="3" stroke-linejoin="round" x1="710" y1="175" x2="472.5" y2="175"/>
	<line fill="none" stroke="#4D4D4D" stroke-width="3" stroke-linejoin="round" x1="840" y1="175" x2="710" y2="175"/>
	<line fill="none" stroke="#666666" stroke-width="3" stroke-linejoin="round" x1="630" y1="125" x2="605" y2="150"/>
	<line fill="none" stroke="#808080" stroke-width="3" stroke-linejoin="round" x1="840" y1="125" x2="630" y2="125"/>
	<line fill="none" stroke="#4D4D4D" stroke-width="3" stroke-linejoin="round" x1="605" y1="150" x2="367.5" y2="150"/>
	<line fill="none" stroke="#666666" stroke-width="3" stroke-linejoin="round" x1="840" y1="150" x2="605" y2="150"/>
	<polyline fill="none" stroke="#4D4D4D" stroke-width="3" stroke-linejoin="round" points="472.5,175 447.5,200 0,200 	"/>
	<polyline fill="none" stroke="#333333" stroke-width="3" stroke-linejoin="round" points="367.5,150 342.5,175 210,175 185,150 
		0,150 	"/>
	<polyline fill="none" stroke="#333333" stroke-width="3" stroke-linejoin="round" points="472.5,100 447.5,125 0,125 	"/>
	<line fill="none" stroke="#4D4D4D" stroke-width="3" stroke-linejoin="round" x1="840" y1="100" x2="472.5" y2="100"/>
	<line fill="none" stroke="#333333" stroke-width="3" stroke-linejoin="round" x1="577.5" y1="50" x2="0" y2="50"/>
	<polyline fill="none" stroke="#808080" stroke-width="3" stroke-linejoin="round" points="840,75 682.5,75 657.5,50 577.5,50 	"/>
	<line fill="none" stroke="#4D4D4D" stroke-width="3" stroke-linejoin="round" x1="315" y1="75" x2="290" y2="100"/>
	<polyline fill="none" stroke="#4D4D4D" stroke-width="3" stroke-linejoin="round" points="577.5,50 552.5,75 315,75 	"/>
	<line fill="none" stroke="#333333" stroke-width="3" stroke-linejoin="round" x1="290" y1="100" x2="0" y2="100"/>
	<line fill="none" stroke="#666666" stroke-width="3" stroke-linejoin="round" x1="472.5" y1="100" x2="290" y2="100"/>
	<line fill="none" stroke="#666666" stroke-width="3" stroke-linejoin="round" x1="735" y1="200" x2="710" y2="175"/>
	<polyline fill="none" stroke="#666666" stroke-width="3" stroke-linejoin="round" points="840,225 630,225 605,250 315,250 	"/>
	<line fill="none" stroke="#4D4D4D" stroke-width="3" stroke-linejoin="round" x1="288.8" y1="225" x2="0" y2="225"/>
</g>
<g id="Dot">
	<circle fill="#E1DDD2" stroke="#E1DDD2" stroke-width="2" stroke-miterlimit="10" cx="290" cy="225" r="2.5"/>
	<circle fill="#E1DDD2" stroke="#E1DDD2" stroke-width="2" stroke-miterlimit="10" cx="290" cy="100" r="2.5"/>
	<circle fill="#E1DDD2" stroke="#E1DDD2" stroke-width="2" stroke-miterlimit="10" cx="735" cy="200" r="2.5"/>
	<circle fill="#E1DDD2" stroke="#E1DDD2" stroke-width="2" stroke-miterlimit="10" cx="710" cy="175" r="2.5"/>
	<circle fill="#E1DDD2" stroke="#E1DDD2" stroke-width="2" stroke-miterlimit="10" cx="605" cy="150" r="2.5"/>
	<circle fill="#E1DDD2" stroke="#E1DDD2" stroke-width="2" stroke-miterlimit="10" cx="472.5" cy="100" r="2.5"/>
	<circle fill="#E1DDD2" stroke="#E1DDD2" stroke-width="2" stroke-miterlimit="10" cx="577.5" cy="50" r="2.5"/>
	<circle fill="#E1DDD2" stroke="#E1DDD2" stroke-width="2" stroke-miterlimit="10" cx="525" cy="125" r="2.5"/>
	<circle fill="#E1DDD2" stroke="#E1DDD2" stroke-width="2" stroke-miterlimit="10" cx="157.5" cy="75" r="2.5"/>
	<circle fill="#E1DDD2" stroke="#E1DDD2" stroke-width="2" stroke-miterlimit="10" cx="315" cy="150" r="2.5"/>
	<circle fill="#E1DDD2" stroke="#E1DDD2" stroke-width="2" stroke-miterlimit="10" cx="420" cy="175" r="2.5"/>
	<circle fill="#E1DDD2" stroke="#E1DDD2" stroke-width="2" stroke-miterlimit="10" cx="367.5" cy="150" r="2.5"/>
	<circle fill="#E1DDD2" stroke="#E1DDD2" stroke-width="2" stroke-miterlimit="10" cx="315" cy="75" r="2.5"/>
	<circle fill="#E1DDD2" stroke="#E1DDD2" stroke-width="2" stroke-miterlimit="10" cx="472.5" cy="175" r="2.5"/>
	<circle fill="#E1DDD2" stroke="#E1DDD2" stroke-width="2" stroke-miterlimit="10" cx="630" cy="125" r="2.5"/>
	<circle fill="#E1DDD2" stroke="#E1DDD2" stroke-width="2" stroke-miterlimit="10" cx="315" cy="250" r="2.5"/>
	<circle fill="#E1DDD2" stroke="#E1DDD2" stroke-width="2" stroke-miterlimit="10" cx="210" cy="250" r="2.5"/>
</g>
</svg>
