<?xml version="1.0" encoding="utf-8"?>
<!-- Generator: Adobe Illustrator 18.0.0, SVG Export Plug-In . SVG Version: 6.00 Build 0)  -->
<!DOCTYPE svg PUBLIC "-//W3C//DTD SVG 1.1//EN" "http://www.w3.org/Graphics/SVG/1.1/DTD/svg11.dtd">
<svg version="1.1" xmlns="http://www.w3.org/2000/svg" xmlns:xlink="http://www.w3.org/1999/xlink" x="0px" y="0px"
	 viewBox="0 0 320 320" enable-background="new 0 0 320 320" xml:space="preserve">
<g id="Background_Color">
	<path fill="#E1DDD2" d="M260,0C201.4,0,142.8,0,84.2,0c-5,0-10,0-15,0c-3.1,0-6.1,0-9.2,0c-2,0-3.9,0.1-5.8,0.3
		C49,0.8,43.9,2,39.2,3.7c-5.4,2-10.5,4.8-15,8.2C9.5,22.8,0,40.3,0,60c0,15.8,0,31.5,0,47.2c0,1.7,0,3.3,0,5c0,49.2,0,98.5,0,147.8
		c0,33.1,26.9,60,60,60c44.8,0,89.7,0,134.5,0c21.8,0,43.7,0,65.5,0c33.1,0,60-26.9,60-60c0-21.8,0-43.7,0-65.5
		c0-27.4,0-54.8,0-82.2c0-1.7,0-3.3,0-5c0-15.8,0-31.5,0-47.2C320,26.9,293.1,0,260,0z"/>
</g>
<g id="Top_Brown">
	<g id="Inst_2_">
		<path fill="#213C59" d="M160,170c2.8,0,5.1,2.3,5.1,5.1s-2.3,5.1-5.1,5.1s-5.1-2.3-5.1-5.1S157.2,170,160,170z"/>
		<path fill="#213C59" d="M160,134.8c8.4,0,15.1,6.8,15.1,15.1c0,8.3-6.8,15.1-15.1,15.1s-15.1-6.8-15.1-15.1
			C144.9,141.5,151.6,134.8,160,134.8z"/>
		<path fill="#213C59" d="M160,106.8c29.4,0,53.2,23.8,53.2,53.2s-23.8,53.2-53.2,53.2s-53.2-23.8-53.2-53.2S130.6,106.8,160,106.8z
			 M190.2,160c0-16.7-13.6-30.2-30.2-30.2s-30.2,13.6-30.2,30.2s13.6,30.2,30.2,30.2S190.2,176.7,190.2,160z"/>
		<path fill="#19222A" d="M160,129.8c16.7,0,30.2,13.6,30.2,30.2s-13.6,30.2-30.2,30.2s-30.2-13.6-30.2-30.2S143.3,129.8,160,129.8z
			 M175.1,149.9c0-8.4-6.8-15.1-15.1-15.1s-15.1,6.8-15.1,15.1c0,8.3,6.8,15.1,15.1,15.1S175.1,158.2,175.1,149.9z M165.1,175.1
			c0-2.8-2.3-5.1-5.1-5.1s-5.1,2.3-5.1,5.1s2.3,5.1,5.1,5.1S165.1,178,165.1,175.1z"/>
		<path fill="#19222A" d="M160,91.8c37.7,0,68.2,30.6,68.2,68.2s-30.6,68.2-68.2,68.2S91.8,197.7,91.8,160S122.3,91.8,160,91.8z
			 M213.2,160c0-29.4-23.8-53.2-53.2-53.2s-53.2,23.8-53.2,53.2s23.8,53.2,53.2,53.2S213.2,189.4,213.2,160z"/>
		<path fill="#563A32" d="M232.8,107.2h-1.4c1.2,1.6,2.4,3.3,3.5,5h2.9H320c0-1.7,0-3.3,0-5H232.8z"/>
		<path fill="#563A32" d="M84.2,107.2h4.4c-1.2,1.6-2.4,3.3-3.4,5H0c0-1.7,0-3.3,0-5h24.2h15h15h15H84.2z"/>
		<path fill="#8E6051" d="M260,0C201.4,0,142.8,0,84.2,0c-5,0-10,0-15,0c-3.1,0-6.1,0-9.2,0c-2,0-3.9,0.1-5.8,0.3
			C49,0.8,43.9,2,39.2,3.7c-5.4,2-10.5,4.8-15,8.2C9.5,22.8,0,40.3,0,60c0,15.8,0,31.5,0,47.2h24.2h15h15h15h15h4.4
			c16.2-21.8,42.1-36,71.4-36c24.5,0,46.7,9.9,62.8,26c3.1,3.1,6,6.5,8.6,10h1.4H320c0-15.8,0-31.5,0-47.2C320,26.9,293.1,0,260,0z"
			/>
	</g>
</g>
<g id="Stripes">
	<g id="Inst_1_">
		<path fill="#35B4F4" d="M84.2,0v107.2h-15V0C74.2,0,79.2,0,84.2,0z"/>
		<path fill="#64DD7C" d="M69.2,0v107.2h-15V0.3C56.1,0.1,58,0,60,0C63.1,0,66.1,0,69.2,0z"/>
		<path fill="#FDD900" d="M54.2,0.3v107h-15V3.7v0C43.9,2,49,0.8,54.2,0.3z"/>
		<path fill="#F13D32" d="M39.2,3.7v103.5h-15V11.9C28.7,8.5,33.8,5.7,39.2,3.7L39.2,3.7z"/>
	</g>
</g>
<g id="Lens_BG">
	<path fill="#19222A" d="M260,20.5c19.7,0,35.6,16,35.6,35.6c0,19.7-16,35.6-35.6,35.6s-35.6-15.9-35.6-35.6
		C224.4,36.5,240.3,20.5,260,20.5z"/>
	<path fill="#19222A" d="M160,91.8c37.7,0,68.2,30.6,68.2,68.2s-30.6,68.2-68.2,68.2S91.8,197.7,91.8,160S122.3,91.8,160,91.8z"/>
</g>
<g id="Default">
	<g id="Inst">
		<path fill="#213C59" d="M260,51c2.8,0,5.1,2.3,5.1,5.1c0,2.8-2.3,5.1-5.1,5.1s-5.1-2.3-5.1-5.1C254.9,53.3,257.2,51,260,51z"/>
		<path fill="#213C59" d="M260,41c8.4,0,15.1,6.8,15.1,15.1c0,8.4-6.8,15.1-15.1,15.1s-15.1-6.8-15.1-15.1
			C244.9,47.8,251.6,41,260,41z M270.1,56.1c0-5.6-4.5-10.1-10.1-10.1s-10.1,4.5-10.1,10.1c0,5.6,4.5,10.1,10.1,10.1
			S270.1,61.7,270.1,56.1z"/>
		<path fill="#213C59" d="M160,170c2.8,0,5.1,2.3,5.1,5.1s-2.3,5.1-5.1,5.1s-5.1-2.3-5.1-5.1S157.2,170,160,170z"/>
		<path fill="#213C59" d="M160,134.8c8.4,0,15.1,6.8,15.1,15.1c0,8.3-6.8,15.1-15.1,15.1s-15.1-6.8-15.1-15.1
			C144.9,141.5,151.6,134.8,160,134.8z"/>
		<path fill="#213C59" d="M160,106.8c29.4,0,53.2,23.8,53.2,53.2s-23.8,53.2-53.2,53.2s-53.2-23.8-53.2-53.2S130.6,106.8,160,106.8z
			 M190.2,160c0-16.7-13.6-30.2-30.2-30.2s-30.2,13.6-30.2,30.2s13.6,30.2,30.2,30.2S190.2,176.7,190.2,160z"/>
	</g>
</g>
<g id="Shade_1_">
	<path id="Shade" fill-opacity="0.32" d="M237.8,112.2l-5-5l-10-10c3.1,3.1,6,6.5,8.6,10c1.2,1.6,2.4,3.3,3.5,5
		c8.8,13.8,13.9,30.2,13.9,47.8c0,49-39.7,88.8-88.8,88.8c-24.5,0-46.7-9.9-62.8-26l97.2,97.2c21.8,0,43.7,0,65.5,0
		c33.1,0,60-26.9,60-60c0-21.8,0-43.7,0-65.5L237.8,112.2z"/>
</g>
</svg>
